<svg width="3263" height="658" viewBox="0 0 3263 658" fill="none" xmlns="http://www.w3.org/2000/svg">
<g clip-path="url(#clip0_91_216)">
<ellipse cx="327.191" cy="329.382" rx="250.939" ry="251.087" fill="#21201F"/>
<g clip-path="url(#clip1_91_216)">
<path fill-rule="evenodd" clip-rule="evenodd" d="M823.601 713.371L-172.21 -37.2519L-165.023 -46.7969L830.787 703.826L823.601 713.371Z" fill="#21201F"/>
<path fill-rule="evenodd" clip-rule="evenodd" d="M522.867 486.684L122.087 184.584L129.279 175.031L530.059 477.131L522.867 486.684Z" fill="#AAA0F9"/>
</g>
<ellipse cx="603.415" cy="167.304" rx="21.8579" ry="21.8449" fill="#21201F"/>
<path d="M648.293 300.745C648.293 348.816 609.347 387.78 561.312 387.78C513.277 387.78 474.332 348.816 474.332 300.745C474.332 252.675 513.277 213.711 561.312 213.711C609.347 213.711 648.293 252.675 648.293 300.745Z" fill="#F9F6F2" stroke="#21201F" stroke-width="10"/>
</g>
<path d="M1017.53 76.1571C1036.08 76.1571 1049.87 62.3702 1049.87 43.8038C1049.87 25.273 1036.08 11.4688 1017.53 11.4688C998.985 11.4688 985.18 25.273 985.18 43.8038C985.18 62.3702 998.985 76.1571 1017.53 76.1571ZM924.309 354.867H1121.21V322.033H1041.31V122.76H924.309V155.577H1004.21V322.033H924.309V354.867Z" fill="#21201F" stroke="#21201F" stroke-width="22.1692" stroke-miterlimit="2"/>
<path d="M1190.64 354.867H1227.74V220.746C1227.74 180.314 1254.39 151.296 1292.91 151.296C1323.82 151.296 1339.99 169.845 1339.99 206.942V354.867H1377.09V205.515C1377.09 147.979 1350.93 117.053 1301.93 117.053C1266.75 117.053 1241.06 132.747 1227.74 162.247H1225.85L1223.46 122.76H1190.64V354.867Z" fill="#21201F" stroke="#21201F" stroke-width="22.1692" stroke-miterlimit="2"/>
<path d="M1573.03 360.576C1624.39 360.576 1652.93 332.04 1652.93 281.138V259.272H1616.8V276.393C1616.8 309.674 1602.53 326.332 1573.51 326.332C1544.97 326.332 1530.71 309.674 1530.71 276.393V155.578H1635.81V122.761H1530.71V40.9688H1501.22L1495.52 122.761H1434.16V155.578H1493.61V281.138C1493.61 332.04 1522.15 360.576 1573.03 360.576Z" fill="#21201F" stroke="#21201F" stroke-width="22.1692" stroke-miterlimit="2"/>
<path d="M1732.83 354.867H1769.93V220.746C1769.93 180.314 1796.09 151.296 1832.71 151.296C1863.15 151.296 1879.79 171.753 1879.79 210.277V236.424H1916.89V205.515C1916.89 147.979 1890.74 117.053 1842.7 117.053C1808.45 117.053 1783.25 133.229 1769.93 162.247H1768.04L1765.65 122.76H1732.83V354.867Z" fill="#21201F" stroke="#21201F" stroke-width="22.1692" stroke-miterlimit="2"/>
<path d="M2082.88 76.1571C2101.43 76.1571 2115.22 62.3702 2115.22 43.8038C2115.22 25.273 2101.43 11.4688 2082.88 11.4688C2064.33 11.4688 2050.55 25.273 2050.55 43.8038C2050.55 62.3702 2064.33 76.1571 2082.88 76.1571ZM1989.66 354.867H2186.56V322.033H2106.66V122.76H1989.66V155.577H2069.56V322.033H1989.66V354.867Z" fill="#21201F" stroke="#21201F" stroke-width="22.1692" stroke-miterlimit="2"/>
<path d="M2256.01 354.867H2293.11V220.746C2293.11 180.314 2319.74 151.296 2358.26 151.296C2389.17 151.296 2405.34 169.845 2405.34 206.942V354.867H2442.44V205.515C2442.44 147.979 2416.28 117.053 2367.3 117.053C2332.09 117.053 2306.41 132.747 2293.11 162.247H2291.2L2288.83 122.76H2256.01V354.867Z" fill="#21201F" stroke="#21201F" stroke-width="22.1692" stroke-miterlimit="2"/>
<path d="M2613.66 360.575C2674.07 360.575 2709.26 335.356 2709.26 287.325C2709.26 249.747 2687.37 229.29 2639.82 222.637L2606.04 217.893C2574.65 213.613 2562.29 204.088 2562.29 185.54C2562.29 164.137 2581.79 151.296 2613.18 151.296C2644.1 151.296 2661.69 164.138 2663.12 180.314H2701.64C2698.79 139.882 2665.97 117.053 2612.71 117.053C2557.53 117.053 2524.25 141.79 2524.25 187.93C2524.25 225.491 2546.12 245.948 2593.68 252.6L2627.45 257.362C2658.84 261.643 2671.21 271.149 2671.21 289.698C2671.21 313.953 2649.81 326.331 2613.66 326.331C2578.93 326.331 2558.49 315.38 2555.16 294.459H2517.12C2519.97 336.301 2555.16 360.575 2613.66 360.575Z" fill="#21201F" stroke="#21201F" stroke-width="22.1692" stroke-miterlimit="2"/>
<path d="M2881.9 76.1571C2900.45 76.1571 2914.24 62.3702 2914.24 43.8038C2914.24 25.273 2900.45 11.4688 2881.9 11.4688C2863.35 11.4688 2849.57 25.273 2849.57 43.8038C2849.57 62.3702 2863.35 76.1571 2881.9 76.1571ZM2788.68 354.867H2985.58V322.033H2905.67V122.76H2788.68V155.577H2868.58V322.033H2788.68V354.867Z" fill="#21201F" stroke="#21201F" stroke-width="22.1692" stroke-miterlimit="2"/>
<path d="M3152.51 360.575C3204.84 360.575 3238.12 332.984 3249.07 282.563H3209.12C3200.56 311.1 3181.53 326.331 3152.51 326.331C3111.62 326.331 3090.22 296.368 3090.22 238.814C3090.22 181.259 3111.62 151.296 3152.51 151.296C3181.53 151.296 3200.56 166.528 3209.12 194.582H3248.59C3237.66 144.162 3204.84 117.053 3152.51 117.053C3086.88 117.053 3051.69 159.857 3051.69 238.814C3051.69 317.77 3086.88 360.575 3152.51 360.575Z" fill="#21201F" stroke="#21201F" stroke-width="22.1692" stroke-miterlimit="2"/>
<path d="M917 654.641V471.225H954.2V623.383H1047.2V654.641H917Z" fill="#21201F"/>
<path d="M1397.98 654.642H1357.42L1341.4 612.534H1267.26L1252.02 654.642H1212.49L1284.57 469.676H1324.09L1397.98 654.642ZM1329.26 581.534L1303.94 512.817L1278.89 581.534H1329.26Z" fill="#21201F"/>
<path d="M1575.49 469.676H1649.38C1664.1 469.676 1674.95 470.451 1682.19 471.484C1689.42 472.776 1695.88 475.359 1701.56 479.234C1707.24 483.109 1711.89 488.276 1715.77 494.734C1719.39 501.192 1721.45 508.167 1721.45 516.176C1721.45 524.959 1719.13 532.967 1714.48 540.201C1709.83 547.434 1703.37 552.859 1695.36 556.476C1706.73 559.576 1715.25 565.259 1721.45 573.267C1727.39 581.017 1730.49 590.317 1730.49 600.909C1730.49 609.434 1728.43 617.701 1724.55 625.451C1720.68 633.459 1715.25 639.917 1708.54 644.567C1701.82 649.476 1693.55 652.317 1683.48 653.351C1677.28 654.126 1662.29 654.384 1638.53 654.642H1575.49V469.676ZM1612.95 500.417V543.301H1637.49C1651.96 543.301 1661 543.042 1664.36 542.526C1670.82 541.751 1675.99 539.684 1679.6 536.067C1683.22 532.451 1685.03 527.542 1685.03 521.601C1685.03 515.917 1683.48 511.267 1680.38 507.651C1677.28 504.034 1672.37 501.967 1666.17 501.192C1662.55 500.676 1651.96 500.417 1634.39 500.417H1612.95ZM1612.95 574.042V623.384H1647.57C1661 623.384 1669.53 623.126 1673.14 622.351C1678.57 621.317 1683.22 618.992 1686.58 614.859C1690.19 610.984 1691.74 605.817 1691.74 599.359C1691.74 593.676 1690.45 589.026 1687.87 585.151C1685.03 581.276 1681.15 578.434 1676.24 576.626C1671.08 574.817 1659.97 574.042 1642.92 574.042H1612.95Z" fill="#21201F"/>
<path d="M1910.08 594.449L1946.5 590.832C1948.57 603.232 1952.96 612.016 1959.68 617.699C1966.39 623.641 1975.44 626.482 1986.8 626.482C1998.94 626.482 2007.99 623.899 2013.93 618.732C2020.13 613.566 2023.23 607.624 2023.23 600.907C2023.23 596.516 2021.94 592.899 2019.35 589.799C2016.77 586.699 2012.12 584.116 2005.92 581.791C2001.53 580.241 1991.45 577.399 1975.95 573.783C1956.06 568.616 1941.85 562.674 1933.84 555.441C1922.48 545.108 1916.79 532.708 1916.79 518.241C1916.79 508.683 1919.38 499.899 1924.8 491.633C1930.23 483.624 1937.72 477.166 1947.79 473.033C1957.87 468.641 1970.01 466.574 1984.22 466.574C2007.47 466.574 2025.04 471.741 2036.66 481.816C2048.54 491.891 2054.49 505.583 2055.26 522.633L2017.8 524.183C2016.25 514.624 2012.89 507.908 2007.47 503.774C2002.3 499.641 1994.29 497.574 1983.96 497.574C1973.11 497.574 1964.59 499.641 1958.39 504.033C1954.51 507.133 1952.44 510.749 1952.44 515.658C1952.44 520.049 1954.25 523.666 1958.13 526.766C1962.78 530.899 1974.14 535.033 1992.23 539.166C2010.57 543.558 2024 547.949 2032.53 552.599C2041.31 556.991 2048.29 563.449 2053.19 571.199C2058.1 579.207 2060.43 589.024 2060.43 600.907C2060.43 611.499 2057.59 621.316 2051.64 630.616C2045.7 639.916 2037.44 646.632 2026.59 651.282C2015.99 655.674 2002.56 657.999 1986.54 657.999C1963.04 657.999 1945.21 652.574 1932.55 641.724C1920.15 630.874 1912.66 615.116 1910.08 594.449Z" fill="#21201F"/>
<path d="M2477.32 654.641V471.225H2514.52V623.383H2607.52V654.641H2477.32Z" fill="#21201F"/>
<path d="M2790.14 654.641V471.225H2827.34V623.383H2920.34V654.641H2790.14Z" fill="#21201F"/>
<path d="M3220.22 586.699L3256.38 598.066C3250.7 618.216 3241.66 633.199 3228.74 643.016C3215.83 652.832 3199.29 657.741 3179.66 657.741C3154.86 657.741 3134.71 649.474 3118.95 632.682C3103.19 615.891 3095.18 592.899 3095.18 563.708C3095.18 532.966 3103.19 509.199 3119.21 492.149C3134.97 475.099 3155.89 466.574 3181.73 466.574C3204.46 466.574 3222.8 473.291 3237.01 486.724C3245.28 494.474 3251.73 505.841 3255.87 520.566L3218.93 529.608C3216.6 520.049 3212.21 512.299 3205.23 506.874C3198.26 501.191 3189.73 498.608 3179.92 498.608C3166.23 498.608 3155.12 503.516 3146.59 513.333C3138.07 523.149 3133.68 538.908 3133.68 561.124C3133.68 584.374 3138.07 601.166 3146.33 610.982C3154.86 620.799 3165.71 625.966 3179.14 625.966C3188.96 625.966 3197.74 622.607 3204.72 616.407C3211.95 610.207 3217.12 600.132 3220.22 586.699Z" fill="#21201F"/>
<defs>
<clipPath id="clip0_91_216">
<rect width="659" height="656" fill="white" transform="translate(0 2)"/>
</clipPath>
<clipPath id="clip1_91_216">
<rect width="588.307" height="588.646" rx="100" transform="matrix(0.99028 -0.139092 0.139538 0.990217 -4.55664 79.4707)" fill="white"/>
</clipPath>
</defs>
</svg>
