<svg width="4345" height="601" viewBox="0 0 4345 601" fill="none" xmlns="http://www.w3.org/2000/svg">
<g clip-path="url(#clip0_97_342)">
<ellipse cx="299.389" cy="299.934" rx="229.615" ry="230.036" fill="#F9F6F2"/>
<g clip-path="url(#clip1_97_342)">
<path fill-rule="evenodd" clip-rule="evenodd" d="M753.614 651.729L-157.576 -35.9603L-151 -44.7051L760.189 642.985L753.614 651.729Z" fill="#F9F6F2"/>
<path fill-rule="evenodd" clip-rule="evenodd" d="M478.434 444.048L111.712 167.277L118.293 158.525L485.015 435.297L478.434 444.048Z" fill="#7F71EA"/>
</g>
<ellipse cx="552.139" cy="151.445" rx="20.0005" ry="20.0134" fill="#F9F6F2"/>
<path d="M592.777 273.699C592.777 317.514 557.326 353.017 513.613 353.017C469.901 353.017 434.449 317.514 434.449 273.699C434.449 229.884 469.901 194.381 513.613 194.381C557.326 194.381 592.777 229.884 592.777 273.699Z" fill="#21201F" stroke="#F9F6F2" stroke-width="10"/>
</g>
<mask id="path-7-outside-1_97_342" maskUnits="userSpaceOnUse" x="773" y="98" width="3546" height="377" fill="black">
<rect fill="white" x="773" y="98" width="3546" height="377"/>
<path d="M879.32 175.72C860.6 175.72 846.68 161.8 846.68 143.08C846.68 124.36 860.6 110.44 879.32 110.44C898.04 110.44 911.96 124.36 911.96 143.08C911.96 161.8 898.04 175.72 879.32 175.72ZM785.24 457V423.88H865.88V255.88H785.24V222.76H903.32V423.88H983.96V457H785.24ZM1051.43 457V222.76H1084.55L1086.95 262.6H1088.87C1102.31 232.84 1128.23 217 1163.75 217C1213.19 217 1239.59 248.2 1239.59 306.28V457H1202.15V307.72C1202.15 270.28 1185.83 251.56 1154.63 251.56C1115.75 251.56 1088.87 280.84 1088.87 321.64V457H1051.43ZM1434.75 462.76C1383.39 462.76 1354.59 433.96 1354.59 382.6V255.88H1294.59V222.76H1356.51L1362.27 140.2H1392.03V222.76H1498.11V255.88H1392.03V377.8C1392.03 411.4 1406.43 428.2 1435.23 428.2C1464.51 428.2 1478.91 411.4 1478.91 377.8V360.52H1515.39V382.6C1515.39 433.96 1486.59 462.76 1434.75 462.76ZM1593.42 457V222.76H1626.54L1628.94 262.6H1630.86C1644.3 233.32 1669.74 217 1704.3 217C1752.78 217 1779.18 248.2 1779.18 306.28V337.48H1741.74V311.08C1741.74 272.2 1724.94 251.56 1694.22 251.56C1657.26 251.56 1630.86 280.84 1630.86 321.64V457H1593.42ZM1944.1 175.72C1925.38 175.72 1911.46 161.8 1911.46 143.08C1911.46 124.36 1925.38 110.44 1944.1 110.44C1962.82 110.44 1976.74 124.36 1976.74 143.08C1976.74 161.8 1962.82 175.72 1944.1 175.72ZM1850.02 457V423.88H1930.66V255.88H1850.02V222.76H1968.1V423.88H2048.74V457H1850.02ZM2116.21 457V222.76H2149.33L2151.73 262.6H2153.65C2167.09 232.84 2193.01 217 2228.53 217C2277.97 217 2304.37 248.2 2304.37 306.28V457H2266.93V307.72C2266.93 270.28 2250.61 251.56 2219.41 251.56C2180.53 251.56 2153.65 280.84 2153.65 321.64V457H2116.21ZM2474.56 462.76C2415.52 462.76 2380 438.28 2377.12 396.04H2415.52C2418.88 417.16 2439.52 428.2 2474.56 428.2C2511.04 428.2 2532.64 415.72 2532.64 391.24C2532.64 372.52 2520.16 362.92 2488.48 358.6L2454.4 353.8C2406.4 347.08 2384.32 326.44 2384.32 288.52C2384.32 241.96 2417.92 217 2473.6 217C2527.36 217 2560.48 240.04 2563.36 280.84H2524.48C2523.04 264.52 2505.28 251.56 2474.08 251.56C2442.4 251.56 2422.72 264.52 2422.72 286.12C2422.72 304.84 2435.2 314.44 2466.88 318.76L2500.96 323.56C2548.96 330.28 2571.04 350.92 2571.04 388.84C2571.04 437.32 2535.52 462.76 2474.56 462.76ZM2742.68 175.72C2723.96 175.72 2710.04 161.8 2710.04 143.08C2710.04 124.36 2723.96 110.44 2742.68 110.44C2761.4 110.44 2775.32 124.36 2775.32 143.08C2775.32 161.8 2761.4 175.72 2742.68 175.72ZM2648.6 457V423.88H2729.24V255.88H2648.6V222.76H2766.68V423.88H2847.32V457H2648.6ZM3013.19 462.76C2946.95 462.76 2911.43 419.56 2911.43 339.88C2911.43 260.2 2946.95 217 3013.19 217C3065.99 217 3099.11 244.36 3110.15 295.24H3070.31C3061.67 266.92 3042.47 251.56 3013.19 251.56C2971.91 251.56 2950.31 281.8 2950.31 339.88C2950.31 397.96 2971.91 428.2 3013.19 428.2C3042.47 428.2 3061.67 412.84 3070.31 384.04H3110.63C3099.59 434.92 3065.99 462.76 3013.19 462.76ZM3436.75 462.76C3385.39 462.76 3356.59 433.96 3356.59 382.6V149.32H3296.59V116.2H3394.03V377.8C3394.03 411.4 3408.43 428.2 3437.23 428.2C3466.51 428.2 3480.91 411.4 3480.91 377.8V360.52H3517.39V382.6C3517.39 433.96 3488.59 462.76 3436.75 462.76ZM3649.66 462.76C3603.1 462.76 3573.82 435.88 3573.82 392.68C3573.82 347.56 3605.98 323.08 3665.02 323.08H3730.78V305.32C3730.78 269.8 3711.58 251.56 3674.14 251.56C3643.42 251.56 3625.18 263.56 3619.9 286.6H3581.98C3588.22 240.52 3619.9 217 3675.1 217C3736.54 217 3768.22 246.28 3768.22 302.92V457H3735.1L3732.7 417.16H3730.78C3715.9 445.48 3686.62 462.76 3649.66 462.76ZM3657.34 428.2C3699.1 428.2 3730.78 398.44 3730.78 360.04V355.24H3665.02C3631.42 355.24 3612.7 368.2 3612.7 392.2C3612.7 414.76 3629.02 428.2 3657.34 428.2ZM3958.09 462.76C3922.57 462.76 3898.57 446.44 3887.05 417.16H3885.13L3882.73 457H3849.61V116.2H3887.05V260.2H3888.97C3900.97 232.84 3924.97 217 3958.57 217C4017.13 217 4051.69 264.52 4051.69 339.88C4051.69 415.72 4017.61 462.76 3958.09 462.76ZM3951.85 428.2C3990.73 428.2 4012.81 397 4012.81 339.88C4012.81 282.76 3990.73 251.56 3951.85 251.56C3912.97 251.56 3887.05 282.28 3887.05 334.12V345.64C3887.05 397.48 3912.97 428.2 3951.85 428.2ZM4210.37 462.76C4151.33 462.76 4115.81 438.28 4112.93 396.04H4151.33C4154.69 417.16 4175.33 428.2 4210.37 428.2C4246.85 428.2 4268.45 415.72 4268.45 391.24C4268.45 372.52 4255.97 362.92 4224.29 358.6L4190.21 353.8C4142.21 347.08 4120.13 326.44 4120.13 288.52C4120.13 241.96 4153.73 217 4209.41 217C4263.17 217 4296.29 240.04 4299.17 280.84H4260.29C4258.85 264.52 4241.09 251.56 4209.89 251.56C4178.21 251.56 4158.53 264.52 4158.53 286.12C4158.53 304.84 4171.01 314.44 4202.69 318.76L4236.77 323.56C4284.77 330.28 4306.85 350.92 4306.85 388.84C4306.85 437.32 4271.33 462.76 4210.37 462.76Z"/>
</mask>
<path d="M879.32 175.72C860.6 175.72 846.68 161.8 846.68 143.08C846.68 124.36 860.6 110.44 879.32 110.44C898.04 110.44 911.96 124.36 911.96 143.08C911.96 161.8 898.04 175.72 879.32 175.72ZM785.24 457V423.88H865.88V255.88H785.24V222.76H903.32V423.88H983.96V457H785.24ZM1051.43 457V222.76H1084.55L1086.95 262.6H1088.87C1102.31 232.84 1128.23 217 1163.75 217C1213.19 217 1239.59 248.2 1239.59 306.28V457H1202.15V307.72C1202.15 270.28 1185.83 251.56 1154.63 251.56C1115.75 251.56 1088.87 280.84 1088.87 321.64V457H1051.43ZM1434.75 462.76C1383.39 462.76 1354.59 433.96 1354.59 382.6V255.88H1294.59V222.76H1356.51L1362.27 140.2H1392.03V222.76H1498.11V255.88H1392.03V377.8C1392.03 411.4 1406.43 428.2 1435.23 428.2C1464.51 428.2 1478.91 411.4 1478.91 377.8V360.52H1515.39V382.6C1515.39 433.96 1486.59 462.76 1434.75 462.76ZM1593.42 457V222.76H1626.54L1628.94 262.6H1630.86C1644.3 233.32 1669.74 217 1704.3 217C1752.78 217 1779.18 248.2 1779.18 306.28V337.48H1741.74V311.08C1741.74 272.2 1724.94 251.56 1694.22 251.56C1657.26 251.56 1630.86 280.84 1630.86 321.64V457H1593.42ZM1944.1 175.72C1925.38 175.72 1911.46 161.8 1911.46 143.08C1911.46 124.36 1925.38 110.44 1944.1 110.44C1962.82 110.44 1976.74 124.36 1976.74 143.08C1976.74 161.8 1962.82 175.72 1944.1 175.72ZM1850.02 457V423.88H1930.66V255.88H1850.02V222.76H1968.1V423.88H2048.74V457H1850.02ZM2116.21 457V222.76H2149.33L2151.73 262.6H2153.65C2167.09 232.84 2193.01 217 2228.53 217C2277.97 217 2304.37 248.2 2304.37 306.28V457H2266.93V307.72C2266.93 270.28 2250.61 251.56 2219.41 251.56C2180.53 251.56 2153.65 280.84 2153.65 321.64V457H2116.21ZM2474.56 462.76C2415.52 462.76 2380 438.28 2377.12 396.04H2415.52C2418.88 417.16 2439.52 428.2 2474.56 428.2C2511.04 428.2 2532.64 415.72 2532.64 391.24C2532.64 372.52 2520.16 362.92 2488.48 358.6L2454.4 353.8C2406.4 347.08 2384.32 326.44 2384.32 288.52C2384.32 241.96 2417.92 217 2473.6 217C2527.36 217 2560.48 240.04 2563.36 280.84H2524.48C2523.04 264.52 2505.28 251.56 2474.08 251.56C2442.4 251.56 2422.72 264.52 2422.72 286.12C2422.72 304.84 2435.2 314.44 2466.88 318.76L2500.96 323.56C2548.96 330.28 2571.04 350.92 2571.04 388.84C2571.04 437.32 2535.52 462.76 2474.56 462.76ZM2742.68 175.72C2723.96 175.72 2710.04 161.8 2710.04 143.08C2710.04 124.36 2723.96 110.44 2742.68 110.44C2761.4 110.44 2775.32 124.36 2775.32 143.08C2775.32 161.8 2761.4 175.72 2742.68 175.72ZM2648.6 457V423.88H2729.24V255.88H2648.6V222.76H2766.68V423.88H2847.32V457H2648.6ZM3013.19 462.76C2946.95 462.76 2911.43 419.56 2911.43 339.88C2911.43 260.2 2946.95 217 3013.19 217C3065.99 217 3099.11 244.36 3110.15 295.24H3070.31C3061.67 266.92 3042.47 251.56 3013.19 251.56C2971.91 251.56 2950.31 281.8 2950.31 339.88C2950.31 397.96 2971.91 428.2 3013.19 428.2C3042.47 428.2 3061.67 412.84 3070.31 384.04H3110.63C3099.59 434.92 3065.99 462.76 3013.19 462.76ZM3436.75 462.76C3385.39 462.76 3356.59 433.96 3356.59 382.6V149.32H3296.59V116.2H3394.03V377.8C3394.03 411.4 3408.43 428.2 3437.23 428.2C3466.51 428.2 3480.91 411.4 3480.91 377.8V360.52H3517.39V382.6C3517.39 433.96 3488.59 462.76 3436.75 462.76ZM3649.66 462.76C3603.1 462.76 3573.82 435.88 3573.82 392.68C3573.82 347.56 3605.98 323.08 3665.02 323.08H3730.78V305.32C3730.78 269.8 3711.58 251.56 3674.14 251.56C3643.42 251.56 3625.18 263.56 3619.9 286.6H3581.98C3588.22 240.52 3619.9 217 3675.1 217C3736.54 217 3768.22 246.28 3768.22 302.92V457H3735.1L3732.7 417.16H3730.78C3715.9 445.48 3686.62 462.76 3649.66 462.76ZM3657.34 428.2C3699.1 428.2 3730.78 398.44 3730.78 360.04V355.24H3665.02C3631.42 355.24 3612.7 368.2 3612.7 392.2C3612.7 414.76 3629.02 428.2 3657.34 428.2ZM3958.09 462.76C3922.57 462.76 3898.57 446.44 3887.05 417.16H3885.13L3882.73 457H3849.61V116.2H3887.05V260.2H3888.97C3900.97 232.84 3924.97 217 3958.57 217C4017.13 217 4051.69 264.52 4051.69 339.88C4051.69 415.72 4017.61 462.76 3958.09 462.76ZM3951.85 428.2C3990.73 428.2 4012.81 397 4012.81 339.88C4012.81 282.76 3990.73 251.56 3951.85 251.56C3912.97 251.56 3887.05 282.28 3887.05 334.12V345.64C3887.05 397.48 3912.97 428.2 3951.85 428.2ZM4210.37 462.76C4151.33 462.76 4115.81 438.28 4112.93 396.04H4151.33C4154.69 417.16 4175.33 428.2 4210.37 428.2C4246.85 428.2 4268.45 415.72 4268.45 391.24C4268.45 372.52 4255.97 362.92 4224.29 358.6L4190.21 353.8C4142.21 347.08 4120.13 326.44 4120.13 288.52C4120.13 241.96 4153.73 217 4209.41 217C4263.17 217 4296.29 240.04 4299.17 280.84H4260.29C4258.85 264.52 4241.09 251.56 4209.89 251.56C4178.21 251.56 4158.53 264.52 4158.53 286.12C4158.53 304.84 4171.01 314.44 4202.69 318.76L4236.77 323.56C4284.77 330.28 4306.85 350.92 4306.85 388.84C4306.85 437.32 4271.33 462.76 4210.37 462.76Z" fill="#F9F6F2"/>
<path d="M785.24 457H773.24V469H785.24V457ZM785.24 423.88V411.88H773.24V423.88H785.24ZM865.88 423.88V435.88H877.88V423.88H865.88ZM865.88 255.88H877.88V243.88H865.88V255.88ZM785.24 255.88H773.24V267.88H785.24V255.88ZM785.24 222.76V210.76H773.24V222.76H785.24ZM903.32 222.76H915.32V210.76H903.32V222.76ZM903.32 423.88H891.32V435.88H903.32V423.88ZM983.96 423.88H995.96V411.88H983.96V423.88ZM983.96 457V469H995.96V457H983.96ZM879.32 163.72C867.227 163.72 858.68 155.173 858.68 143.08H834.68C834.68 168.427 853.973 187.72 879.32 187.72V163.72ZM858.68 143.08C858.68 130.987 867.227 122.44 879.32 122.44V98.44C853.973 98.44 834.68 117.733 834.68 143.08H858.68ZM879.32 122.44C891.413 122.44 899.96 130.987 899.96 143.08H923.96C923.96 117.733 904.667 98.44 879.32 98.44V122.44ZM899.96 143.08C899.96 155.173 891.413 163.72 879.32 163.72V187.72C904.667 187.72 923.96 168.427 923.96 143.08H899.96ZM797.24 457V423.88H773.24V457H797.24ZM785.24 435.88H865.88V411.88H785.24V435.88ZM877.88 423.88V255.88H853.88V423.88H877.88ZM865.88 243.88H785.24V267.88H865.88V243.88ZM797.24 255.88V222.76H773.24V255.88H797.24ZM785.24 234.76H903.32V210.76H785.24V234.76ZM891.32 222.76V423.88H915.32V222.76H891.32ZM903.32 435.88H983.96V411.88H903.32V435.88ZM971.96 423.88V457H995.96V423.88H971.96ZM983.96 445H785.24V469H983.96V445ZM1051.43 457H1039.43V469H1051.43V457ZM1051.43 222.76V210.76H1039.43V222.76H1051.43ZM1084.55 222.76L1096.53 222.038L1095.85 210.76H1084.55V222.76ZM1086.95 262.6L1074.98 263.322L1075.65 274.6H1086.95V262.6ZM1088.87 262.6V274.6H1096.62L1099.81 267.539L1088.87 262.6ZM1239.59 457V469H1251.59V457H1239.59ZM1202.15 457H1190.15V469H1202.15V457ZM1088.87 457V469H1100.87V457H1088.87ZM1063.43 457V222.76H1039.43V457H1063.43ZM1051.43 234.76H1084.55V210.76H1051.43V234.76ZM1072.58 223.482L1074.98 263.322L1098.93 261.878L1096.53 222.038L1072.58 223.482ZM1086.95 274.6H1088.87V250.6H1086.95V274.6ZM1099.81 267.539C1111.11 242.518 1132.45 229 1163.75 229V205C1124.02 205 1093.52 223.162 1077.94 257.661L1099.81 267.539ZM1163.75 229C1185.83 229 1201.08 235.856 1211.06 247.624C1221.33 259.725 1227.59 278.838 1227.59 306.28H1251.59C1251.59 275.642 1244.65 250.115 1229.36 232.096C1213.79 213.744 1191.12 205 1163.75 205V229ZM1227.59 306.28V457H1251.59V306.28H1227.59ZM1239.59 445H1202.15V469H1239.59V445ZM1214.15 457V307.72H1190.15V457H1214.15ZM1214.15 307.72C1214.15 287.516 1209.78 270.2 1199.23 257.815C1188.37 245.077 1172.7 239.56 1154.63 239.56V263.56C1167.76 263.56 1175.86 267.403 1180.96 273.385C1186.36 279.72 1190.15 290.484 1190.15 307.72H1214.15ZM1154.63 239.56C1132.04 239.56 1112.36 248.141 1098.4 263.117C1084.5 278.027 1076.87 298.591 1076.87 321.64H1100.87C1100.87 303.889 1106.69 289.413 1115.95 279.483C1125.15 269.619 1138.35 263.56 1154.63 263.56V239.56ZM1076.87 321.64V457H1100.87V321.64H1076.87ZM1088.87 445H1051.43V469H1088.87V445ZM1354.59 255.88H1366.59V243.88H1354.59V255.88ZM1294.59 255.88H1282.59V267.88H1294.59V255.88ZM1294.59 222.76V210.76H1282.59V222.76H1294.59ZM1356.51 222.76V234.76H1367.7L1368.48 223.595L1356.51 222.76ZM1362.27 140.2V128.2H1351.08L1350.3 139.365L1362.27 140.2ZM1392.03 140.2H1404.03V128.2H1392.03V140.2ZM1392.03 222.76H1380.03V234.76H1392.03V222.76ZM1498.11 222.76H1510.11V210.76H1498.11V222.76ZM1498.11 255.88V267.88H1510.11V255.88H1498.11ZM1392.03 255.88V243.88H1380.03V255.88H1392.03ZM1478.91 360.52V348.52H1466.91V360.52H1478.91ZM1515.39 360.52H1527.39V348.52H1515.39V360.52ZM1434.75 450.76C1411.27 450.76 1394.65 444.213 1383.89 433.455C1373.13 422.696 1366.59 406.081 1366.59 382.6H1342.59C1342.59 410.479 1350.44 433.944 1366.92 450.425C1383.4 466.907 1406.87 474.76 1434.75 474.76V450.76ZM1366.59 382.6V255.88H1342.59V382.6H1366.59ZM1354.59 243.88H1294.59V267.88H1354.59V243.88ZM1306.59 255.88V222.76H1282.59V255.88H1306.59ZM1294.59 234.76H1356.51V210.76H1294.59V234.76ZM1368.48 223.595L1374.24 141.035L1350.3 139.365L1344.54 221.925L1368.48 223.595ZM1362.27 152.2H1392.03V128.2H1362.27V152.2ZM1380.03 140.2V222.76H1404.03V140.2H1380.03ZM1392.03 234.76H1498.11V210.76H1392.03V234.76ZM1486.11 222.76V255.88H1510.11V222.76H1486.11ZM1498.11 243.88H1392.03V267.88H1498.11V243.88ZM1380.03 255.88V377.8H1404.03V255.88H1380.03ZM1380.03 377.8C1380.03 396.036 1383.9 411.952 1393.72 423.409C1403.84 435.221 1418.45 440.2 1435.23 440.2V416.2C1423.2 416.2 1416.21 412.779 1411.94 407.79C1407.36 402.448 1404.03 393.164 1404.03 377.8H1380.03ZM1435.23 440.2C1452.18 440.2 1466.92 435.257 1477.13 423.447C1487.04 411.976 1490.91 396.033 1490.91 377.8H1466.91C1466.91 393.167 1463.57 402.424 1458.97 407.753C1454.66 412.743 1447.55 416.2 1435.23 416.2V440.2ZM1490.91 377.8V360.52H1466.91V377.8H1490.91ZM1478.91 372.52H1515.39V348.52H1478.91V372.52ZM1503.39 360.52V382.6H1527.39V360.52H1503.39ZM1503.39 382.6C1503.39 406.08 1496.84 422.683 1486.04 433.436C1475.23 444.197 1458.5 450.76 1434.75 450.76V474.76C1462.84 474.76 1486.42 466.923 1502.97 450.444C1519.53 433.957 1527.39 410.48 1527.39 382.6H1503.39ZM1593.42 457H1581.42V469H1593.42V457ZM1593.42 222.76V210.76H1581.42V222.76H1593.42ZM1626.54 222.76L1638.52 222.038L1637.84 210.76H1626.54V222.76ZM1628.94 262.6L1616.96 263.322L1617.64 274.6H1628.94V262.6ZM1630.86 262.6V274.6H1638.56L1641.77 267.606L1630.86 262.6ZM1779.18 337.48V349.48H1791.18V337.48H1779.18ZM1741.74 337.48H1729.74V349.48H1741.74V337.48ZM1630.86 457V469H1642.86V457H1630.86ZM1605.42 457V222.76H1581.42V457H1605.42ZM1593.42 234.76H1626.54V210.76H1593.42V234.76ZM1614.56 223.482L1616.96 263.322L1640.92 261.878L1638.52 222.038L1614.56 223.482ZM1628.94 274.6H1630.86V250.6H1628.94V274.6ZM1641.77 267.606C1653.17 242.772 1674.22 229 1704.3 229V205C1665.26 205 1635.44 223.868 1619.96 257.594L1641.77 267.606ZM1704.3 229C1725.82 229 1740.84 235.809 1750.74 247.582C1760.92 259.698 1767.18 278.841 1767.18 306.28H1791.18C1791.18 275.639 1784.24 250.142 1769.11 232.138C1753.68 213.791 1731.26 205 1704.3 205V229ZM1767.18 306.28V337.48H1791.18V306.28H1767.18ZM1779.18 325.48H1741.74V349.48H1779.18V325.48ZM1753.74 337.48V311.08H1729.74V337.48H1753.74ZM1753.74 311.08C1753.74 290.159 1749.26 272.184 1738.86 259.23C1728.12 245.84 1712.48 239.56 1694.22 239.56V263.56C1706.68 263.56 1714.81 267.6 1720.14 274.25C1725.83 281.336 1729.74 293.121 1729.74 311.08H1753.74ZM1694.22 239.56C1649.52 239.56 1618.86 275.389 1618.86 321.64H1642.86C1642.86 286.291 1665.01 263.56 1694.22 263.56V239.56ZM1618.86 321.64V457H1642.86V321.64H1618.86ZM1630.86 445H1593.42V469H1630.86V445ZM1850.02 457H1838.02V469H1850.02V457ZM1850.02 423.88V411.88H1838.02V423.88H1850.02ZM1930.66 423.88V435.88H1942.66V423.88H1930.66ZM1930.66 255.88H1942.66V243.88H1930.66V255.88ZM1850.02 255.88H1838.02V267.88H1850.02V255.88ZM1850.02 222.76V210.76H1838.02V222.76H1850.02ZM1968.1 222.76H1980.1V210.76H1968.1V222.76ZM1968.1 423.88H1956.1V435.88H1968.1V423.88ZM2048.73 423.88H2060.73V411.88H2048.73V423.88ZM2048.73 457V469H2060.73V457H2048.73ZM1944.09 163.72C1932 163.72 1923.46 155.173 1923.46 143.08H1899.46C1899.46 168.427 1918.75 187.72 1944.09 187.72V163.72ZM1923.46 143.08C1923.46 130.987 1932 122.44 1944.09 122.44V98.44C1918.75 98.44 1899.46 117.733 1899.46 143.08H1923.46ZM1944.09 122.44C1956.19 122.44 1964.73 130.987 1964.73 143.08H1988.73C1988.73 117.733 1969.44 98.44 1944.09 98.44V122.44ZM1964.73 143.08C1964.73 155.173 1956.19 163.72 1944.09 163.72V187.72C1969.44 187.72 1988.73 168.427 1988.73 143.08H1964.73ZM1862.02 457V423.88H1838.02V457H1862.02ZM1850.02 435.88H1930.66V411.88H1850.02V435.88ZM1942.66 423.88V255.88H1918.66V423.88H1942.66ZM1930.66 243.88H1850.02V267.88H1930.66V243.88ZM1862.02 255.88V222.76H1838.02V255.88H1862.02ZM1850.02 234.76H1968.1V210.76H1850.02V234.76ZM1956.1 222.76V423.88H1980.1V222.76H1956.1ZM1968.1 435.88H2048.73V411.88H1968.1V435.88ZM2036.73 423.88V457H2060.73V423.88H2036.73ZM2048.73 445H1850.02V469H2048.73V445ZM2116.21 457H2104.21V469H2116.21V457ZM2116.21 222.76V210.76H2104.21V222.76H2116.21ZM2149.33 222.76L2161.31 222.038L2160.63 210.76H2149.33V222.76ZM2151.73 262.6L2139.75 263.322L2140.43 274.6H2151.73V262.6ZM2153.65 262.6V274.6H2161.4L2164.59 267.539L2153.65 262.6ZM2304.37 457V469H2316.37V457H2304.37ZM2266.93 457H2254.93V469H2266.93V457ZM2153.65 457V469H2165.65V457H2153.65ZM2128.21 457V222.76H2104.21V457H2128.21ZM2116.21 234.76H2149.33V210.76H2116.21V234.76ZM2137.35 223.482L2139.75 263.322L2163.71 261.878L2161.31 222.038L2137.35 223.482ZM2151.73 274.6H2153.65V250.6H2151.73V274.6ZM2164.59 267.539C2175.89 242.518 2197.22 229 2228.53 229V205C2188.8 205 2158.29 223.162 2142.71 257.661L2164.59 267.539ZM2228.53 229C2250.6 229 2265.85 235.856 2275.84 247.624C2286.11 259.725 2292.37 278.838 2292.37 306.28H2316.37C2316.37 275.642 2309.43 250.115 2294.14 232.096C2278.57 213.744 2255.89 205 2228.53 205V229ZM2292.37 306.28V457H2316.37V306.28H2292.37ZM2304.37 445H2266.93V469H2304.37V445ZM2278.93 457V307.72H2254.93V457H2278.93ZM2278.93 307.72C2278.93 287.516 2274.56 270.2 2264 257.815C2253.14 245.077 2237.48 239.56 2219.41 239.56V263.56C2232.54 263.56 2240.64 267.403 2245.74 273.385C2251.14 279.72 2254.93 290.484 2254.93 307.72H2278.93ZM2219.41 239.56C2196.81 239.56 2177.13 248.141 2163.17 263.117C2149.27 278.027 2141.65 298.591 2141.65 321.64H2165.65C2165.65 303.889 2171.47 289.413 2180.73 279.483C2189.92 269.619 2203.13 263.56 2219.41 263.56V239.56ZM2141.65 321.64V457H2165.65V321.64H2141.65ZM2153.65 445H2116.21V469H2153.65V445ZM2377.12 396.04V384.04H2364.28L2365.15 396.856L2377.12 396.04ZM2415.52 396.04L2427.37 394.155L2425.76 384.04H2415.52V396.04ZM2488.48 358.6L2486.81 370.483L2486.83 370.486L2486.86 370.49L2488.48 358.6ZM2454.4 353.8L2456.08 341.917L2456.07 341.916L2454.4 353.8ZM2563.36 280.84V292.84H2576.24L2575.33 279.995L2563.36 280.84ZM2524.48 280.84L2512.53 281.895L2513.49 292.84H2524.48V280.84ZM2466.88 318.76L2468.56 306.877L2468.53 306.874L2468.5 306.87L2466.88 318.76ZM2500.96 323.56L2499.29 335.443L2499.3 335.444L2500.96 323.56ZM2474.56 450.76C2446.51 450.76 2425.53 444.916 2411.57 435.344C2398.04 426.06 2390.29 412.757 2389.09 395.224L2365.15 396.856C2366.83 421.563 2378.29 441.62 2397.99 455.136C2417.28 468.364 2443.58 474.76 2474.56 474.76V450.76ZM2377.12 408.04H2415.52V384.04H2377.12V408.04ZM2403.67 397.925C2405.99 412.511 2414.52 423.583 2427.44 430.589C2439.85 437.318 2456.02 440.2 2474.56 440.2V416.2C2458.06 416.2 2446.39 413.562 2438.88 409.491C2431.88 405.697 2428.41 400.689 2427.37 394.155L2403.67 397.925ZM2474.56 440.2C2493.85 440.2 2510.95 436.953 2523.61 429.097C2537.02 420.774 2544.64 407.718 2544.64 391.24H2520.64C2520.64 399.242 2517.46 404.666 2510.96 408.703C2503.7 413.207 2491.75 416.2 2474.56 416.2V440.2ZM2544.64 391.24C2544.64 378.679 2540.18 367.775 2529.62 359.9C2520.03 352.749 2506.48 348.943 2490.1 346.71L2486.86 370.49C2502.17 372.577 2510.7 375.731 2515.27 379.14C2518.87 381.825 2520.64 385.081 2520.64 391.24H2544.64ZM2490.16 346.717L2456.08 341.917L2452.73 365.683L2486.81 370.483L2490.16 346.717ZM2456.07 341.916C2433.22 338.718 2418.5 332.434 2409.55 324.083C2401 316.119 2396.32 304.975 2396.32 288.52H2372.32C2372.32 309.985 2378.68 328.121 2393.18 341.637C2407.26 354.766 2427.58 362.162 2452.74 365.684L2456.07 341.916ZM2396.32 288.52C2396.32 268.415 2403.41 254.227 2415.49 244.738C2428.01 234.914 2447.34 229 2473.6 229V205C2444.19 205 2418.88 211.566 2400.67 225.862C2382.04 240.493 2372.32 262.065 2372.32 288.52H2396.32ZM2473.6 229C2498.95 229 2517.96 234.455 2530.63 243.418C2542.92 252.105 2550.19 264.706 2551.39 281.685L2575.33 279.995C2573.65 256.174 2562.92 236.855 2544.49 223.822C2526.45 211.065 2502.02 205 2473.6 205V229ZM2563.36 268.84H2524.48V292.84H2563.36V268.84ZM2536.44 279.785C2535.32 267.193 2527.88 256.77 2516.76 249.88C2505.82 243.098 2491.2 239.56 2474.08 239.56V263.56C2488.16 263.56 2498.03 266.502 2504.12 270.28C2510.04 273.95 2512.2 278.167 2512.53 281.895L2536.44 279.785ZM2474.08 239.56C2456.83 239.56 2441.38 243.054 2429.85 250.766C2417.83 258.806 2410.72 271.092 2410.72 286.12H2434.72C2434.72 279.548 2437.45 274.554 2443.19 270.714C2449.43 266.546 2459.65 263.56 2474.08 263.56V239.56ZM2410.72 286.12C2410.72 298.681 2415.19 309.585 2425.75 317.46C2435.34 324.611 2448.89 328.417 2465.26 330.65L2468.5 306.87C2453.2 304.783 2444.67 301.629 2440.1 298.22C2436.5 295.535 2434.72 292.279 2434.72 286.12H2410.72ZM2465.21 330.643L2499.29 335.443L2502.64 311.677L2468.56 306.877L2465.21 330.643ZM2499.3 335.444C2522.14 338.642 2536.86 344.926 2545.82 353.277C2554.36 361.241 2559.04 372.385 2559.04 388.84H2583.04C2583.04 367.375 2576.68 349.239 2562.19 335.723C2548.1 322.594 2527.78 315.198 2502.63 311.676L2499.3 335.444ZM2559.04 388.84C2559.04 409.81 2551.56 424.524 2538.45 434.393C2524.81 444.656 2503.63 450.76 2474.56 450.76V474.76C2506.45 474.76 2533.51 468.144 2552.88 453.567C2572.77 438.596 2583.04 416.35 2583.04 388.84H2559.04ZM2648.6 457H2636.6V469H2648.6V457ZM2648.6 423.88V411.88H2636.6V423.88H2648.6ZM2729.24 423.88V435.88H2741.24V423.88H2729.24ZM2729.24 255.88H2741.24V243.88H2729.24V255.88ZM2648.6 255.88H2636.6V267.88H2648.6V255.88ZM2648.6 222.76V210.76H2636.6V222.76H2648.6ZM2766.68 222.76H2778.68V210.76H2766.68V222.76ZM2766.68 423.88H2754.68V435.88H2766.68V423.88ZM2847.32 423.88H2859.32V411.88H2847.32V423.88ZM2847.32 457V469H2859.32V457H2847.32ZM2742.68 163.72C2730.58 163.72 2722.04 155.173 2722.04 143.08H2698.04C2698.04 168.427 2717.33 187.72 2742.68 187.72V163.72ZM2722.04 143.08C2722.04 130.987 2730.58 122.44 2742.68 122.44V98.44C2717.33 98.44 2698.04 117.733 2698.04 143.08H2722.04ZM2742.68 122.44C2754.77 122.44 2763.32 130.987 2763.32 143.08H2787.32C2787.32 117.733 2768.02 98.44 2742.68 98.44V122.44ZM2763.32 143.08C2763.32 155.173 2754.77 163.72 2742.68 163.72V187.72C2768.02 187.72 2787.32 168.427 2787.32 143.08H2763.32ZM2660.6 457V423.88H2636.6V457H2660.6ZM2648.6 435.88H2729.24V411.88H2648.6V435.88ZM2741.24 423.88V255.88H2717.24V423.88H2741.24ZM2729.24 243.88H2648.6V267.88H2729.24V243.88ZM2660.6 255.88V222.76H2636.6V255.88H2660.6ZM2648.6 234.76H2766.68V210.76H2648.6V234.76ZM2754.68 222.76V423.88H2778.68V222.76H2754.68ZM2766.68 435.88H2847.32V411.88H2766.68V435.88ZM2835.32 423.88V457H2859.32V423.88H2835.32ZM2847.32 445H2648.6V469H2847.32V445ZM3110.15 295.24V307.24H3125.03L3121.88 292.695L3110.15 295.24ZM3070.31 295.24L3058.83 298.742L3061.43 307.24H3070.31V295.24ZM3070.31 384.04V372.04H3061.38L3058.82 380.592L3070.31 384.04ZM3110.63 384.04L3122.36 386.585L3125.51 372.04H3110.63V384.04ZM3013.19 450.76C2982.84 450.76 2961.13 440.992 2946.72 423.555C2931.99 405.738 2923.43 378.167 2923.43 339.88H2899.43C2899.43 381.273 2908.63 415.142 2928.22 438.845C2948.13 462.928 2977.3 474.76 3013.19 474.76V450.76ZM2923.43 339.88C2923.43 301.593 2931.99 274.022 2946.72 256.205C2961.13 238.768 2982.84 229 3013.19 229V205C2977.3 205 2948.13 216.832 2928.22 240.915C2908.63 264.618 2899.43 298.487 2899.43 339.88H2923.43ZM3013.19 229C3037.49 229 3056.1 235.265 3069.77 246.357C3083.44 257.456 3093.34 274.351 3098.42 297.785L3121.88 292.695C3115.92 265.249 3103.74 243.024 3084.89 227.723C3066.04 212.415 3041.69 205 3013.19 205V229ZM3110.15 283.24H3070.31V307.24H3110.15V283.24ZM3081.79 291.738C3076.92 275.788 3068.77 262.525 3056.83 253.289C3044.84 244.008 3030 239.56 3013.19 239.56V263.56C3025.66 263.56 3035.06 266.792 3042.15 272.271C3049.29 277.795 3055.06 286.371 3058.83 298.742L3081.79 291.738ZM3013.19 239.56C2989.23 239.56 2969.61 248.57 2956.5 266.976C2943.87 284.697 2938.31 309.677 2938.31 339.88H2962.31C2962.31 312.003 2967.55 292.823 2976.04 280.904C2984.05 269.67 2995.88 263.56 3013.19 263.56V239.56ZM2938.31 339.88C2938.31 370.083 2943.87 395.063 2956.5 412.784C2969.61 431.19 2989.23 440.2 3013.19 440.2V416.2C2995.88 416.2 2984.05 410.09 2976.04 398.856C2967.55 386.937 2962.31 367.757 2962.31 339.88H2938.31ZM3013.19 440.2C3030 440.2 3044.86 435.751 3056.87 426.383C3068.82 417.062 3076.95 403.66 3081.8 387.488L3058.82 380.592C3055.03 393.22 3049.24 401.898 3042.11 407.457C3035.04 412.969 3025.66 416.2 3013.19 416.2V440.2ZM3070.31 396.04H3110.63V372.04H3070.31V396.04ZM3098.9 381.495C3093.83 404.897 3083.82 421.931 3070 433.17C3056.19 444.398 3037.45 450.76 3013.19 450.76V474.76C3041.73 474.76 3066.19 467.202 3085.14 451.79C3104.08 436.389 3116.39 414.063 3122.36 386.585L3098.9 381.495ZM3356.59 149.32H3368.59V137.32H3356.59V149.32ZM3296.59 149.32H3284.59V161.32H3296.59V149.32ZM3296.59 116.2V104.2H3284.59V116.2H3296.59ZM3394.03 116.2H3406.03V104.2H3394.03V116.2ZM3480.91 360.52V348.52H3468.91V360.52H3480.91ZM3517.39 360.52H3529.39V348.52H3517.39V360.52ZM3436.75 450.76C3413.27 450.76 3396.65 444.213 3385.89 433.455C3375.13 422.696 3368.59 406.081 3368.59 382.6H3344.59C3344.59 410.479 3352.44 433.944 3368.92 450.425C3385.4 466.907 3408.87 474.76 3436.75 474.76V450.76ZM3368.59 382.6V149.32H3344.59V382.6H3368.59ZM3356.59 137.32H3296.59V161.32H3356.59V137.32ZM3308.59 149.32V116.2H3284.59V149.32H3308.59ZM3296.59 128.2H3394.03V104.2H3296.59V128.2ZM3382.03 116.2V377.8H3406.03V116.2H3382.03ZM3382.03 377.8C3382.03 396.036 3385.89 411.952 3395.72 423.409C3405.84 435.221 3420.45 440.2 3437.23 440.2V416.2C3425.2 416.2 3418.21 412.779 3413.94 407.79C3409.36 402.448 3406.03 393.164 3406.03 377.8H3382.03ZM3437.23 440.2C3454.18 440.2 3468.92 435.257 3479.13 423.447C3489.04 411.976 3492.91 396.033 3492.91 377.8H3468.91C3468.91 393.167 3465.57 402.424 3460.97 407.753C3456.65 412.743 3449.55 416.2 3437.23 416.2V440.2ZM3492.91 377.8V360.52H3468.91V377.8H3492.91ZM3480.91 372.52H3517.39V348.52H3480.91V372.52ZM3505.39 360.52V382.6H3529.39V360.52H3505.39ZM3505.39 382.6C3505.39 406.08 3498.84 422.683 3488.04 433.436C3477.23 444.197 3460.5 450.76 3436.75 450.76V474.76C3464.84 474.76 3488.42 466.923 3504.97 450.444C3521.53 433.957 3529.39 410.48 3529.39 382.6H3505.39ZM3730.78 323.08V335.08H3742.78V323.08H3730.78ZM3619.9 286.6V298.6H3629.46L3631.6 289.281L3619.9 286.6ZM3581.98 286.6L3570.09 284.99L3568.25 298.6H3581.98V286.6ZM3768.22 457V469H3780.22V457H3768.22ZM3735.1 457L3723.12 457.722L3723.8 469H3735.1V457ZM3732.7 417.16L3744.68 416.438L3744 405.16H3732.7V417.16ZM3730.78 417.16V405.16H3723.53L3720.16 411.578L3730.78 417.16ZM3730.78 355.24H3742.78V343.24H3730.78V355.24ZM3649.66 450.76C3628.65 450.76 3612.85 444.719 3602.42 435.099C3592.1 425.582 3585.82 411.451 3585.82 392.68H3561.82C3561.82 417.109 3570.18 438.018 3586.14 452.741C3601.99 467.361 3624.11 474.76 3649.66 474.76V450.76ZM3585.82 392.68C3585.82 373.273 3592.55 359.657 3604.56 350.502C3617.08 340.951 3636.89 335.08 3665.02 335.08V311.08C3634.11 311.08 3608.32 317.449 3590 331.418C3571.17 345.783 3561.82 366.967 3561.82 392.68H3585.82ZM3665.02 335.08H3730.78V311.08H3665.02V335.08ZM3742.78 323.08V305.32H3718.78V323.08H3742.78ZM3742.78 305.32C3742.78 285.465 3737.38 268.392 3724.76 256.417C3712.26 244.549 3694.63 239.56 3674.14 239.56V263.56C3691.09 263.56 3701.78 267.691 3708.24 273.823C3714.58 279.848 3718.78 289.655 3718.78 305.32H3742.78ZM3674.14 239.56C3657.36 239.56 3642.59 242.82 3630.95 250.374C3619.01 258.123 3611.47 269.681 3608.2 283.919L3631.6 289.281C3633.61 280.479 3637.83 274.517 3644.01 270.506C3650.49 266.3 3660.2 263.56 3674.14 263.56V239.56ZM3619.9 274.6H3581.98V298.6H3619.9V274.6ZM3593.87 288.21C3596.64 267.733 3604.81 253.5 3617.36 244.138C3630.18 234.567 3649.05 229 3675.1 229V205C3645.95 205 3621.38 211.193 3603 224.902C3584.35 238.82 3573.56 259.387 3570.09 284.99L3593.87 288.21ZM3675.1 229C3704.11 229 3723.98 235.923 3736.56 247.538C3748.97 258.994 3756.22 276.81 3756.22 302.92H3780.22C3780.22 272.39 3771.63 247.246 3752.84 229.902C3734.22 212.717 3707.53 205 3675.1 205V229ZM3756.22 302.92V457H3780.22V302.92H3756.22ZM3768.22 445H3735.1V469H3768.22V445ZM3747.08 456.278L3744.68 416.438L3720.72 417.882L3723.12 457.722L3747.08 456.278ZM3732.7 405.16H3730.78V429.16H3732.7V405.16ZM3720.16 411.578C3707.57 435.534 3682.65 450.76 3649.66 450.76V474.76C3690.59 474.76 3724.23 455.426 3741.4 422.742L3720.16 411.578ZM3657.34 440.2C3704.91 440.2 3742.78 405.855 3742.78 360.04H3718.78C3718.78 391.025 3693.29 416.2 3657.34 416.2V440.2ZM3742.78 360.04V355.24H3718.78V360.04H3742.78ZM3730.78 343.24H3665.02V367.24H3730.78V343.24ZM3665.02 343.24C3646.97 343.24 3631.07 346.675 3619.36 354.902C3607.02 363.573 3600.7 376.624 3600.7 392.2H3624.7C3624.7 383.776 3627.74 378.347 3633.16 374.538C3639.21 370.285 3649.47 367.24 3665.02 367.24V343.24ZM3600.7 392.2C3600.7 406.624 3606.06 419.239 3616.84 427.98C3627.28 436.446 3641.46 440.2 3657.34 440.2V416.2C3644.9 416.2 3636.76 413.234 3631.96 409.34C3627.5 405.721 3624.7 400.336 3624.7 392.2H3600.7ZM3887.05 417.16L3898.22 412.767L3895.23 405.16H3887.05V417.16ZM3885.13 417.16V405.16H3873.83L3873.16 416.438L3885.13 417.16ZM3882.73 457V469H3894.03L3894.71 457.722L3882.73 457ZM3849.61 457H3837.61V469H3849.61V457ZM3849.61 116.2V104.2H3837.61V116.2H3849.61ZM3887.05 116.2H3899.05V104.2H3887.05V116.2ZM3887.05 260.2H3875.05V272.2H3887.05V260.2ZM3888.97 260.2V272.2H3896.81L3899.96 265.02L3888.97 260.2ZM3958.09 450.76C3942.19 450.76 3929.69 447.12 3920.12 440.886C3910.6 434.68 3903.19 425.399 3898.22 412.767L3875.89 421.553C3882.44 438.201 3892.79 451.72 3907.02 460.994C3921.21 470.24 3938.48 474.76 3958.09 474.76V450.76ZM3887.05 405.16H3885.13V429.16H3887.05V405.16ZM3873.16 416.438L3870.76 456.278L3894.71 457.722L3897.11 417.882L3873.16 416.438ZM3882.73 445H3849.61V469H3882.73V445ZM3861.61 457V116.2H3837.61V457H3861.61ZM3849.61 128.2H3887.05V104.2H3849.61V128.2ZM3875.05 116.2V260.2H3899.05V116.2H3875.05ZM3887.05 272.2H3888.97V248.2H3887.05V272.2ZM3899.96 265.02C3909.93 242.299 3929.43 229 3958.57 229V205C3920.52 205 3892.02 223.381 3877.98 255.38L3899.96 265.02ZM3958.57 229C3984.21 229 4003.88 239.207 4017.49 257.376C4031.41 275.95 4039.69 303.846 4039.69 339.88H4063.69C4063.69 300.554 4054.7 267.01 4036.7 242.984C4018.39 218.553 3991.5 205 3958.57 205V229ZM4039.69 339.88C4039.69 376.206 4031.51 404.072 4017.62 422.551C4004.06 440.597 3984.31 450.76 3958.09 450.76V474.76C3991.4 474.76 4018.45 461.403 4036.81 436.969C4054.84 412.969 4063.69 379.394 4063.69 339.88H4039.69ZM3951.85 440.2C3974.99 440.2 3994.01 430.665 4006.77 412.307C4019.09 394.567 4024.81 369.707 4024.81 339.88H4000.81C4000.81 367.173 3995.49 386.473 3987.06 398.613C3979.05 410.135 3967.6 416.2 3951.85 416.2V440.2ZM4024.81 339.88C4024.81 310.053 4019.09 285.193 4006.77 267.453C3994.01 249.095 3974.99 239.56 3951.85 239.56V263.56C3967.6 263.56 3979.05 269.625 3987.06 281.147C3995.49 293.287 4000.81 312.587 4000.81 339.88H4024.81ZM3951.85 239.56C3928.96 239.56 3909.24 248.749 3895.51 265.899C3881.99 282.772 3875.05 306.331 3875.05 334.12H3899.05C3899.05 310.069 3905.07 292.348 3914.24 280.901C3923.19 269.731 3935.87 263.56 3951.85 263.56V239.56ZM3875.05 334.12V345.64H3899.05V334.12H3875.05ZM3875.05 345.64C3875.05 373.429 3881.99 396.988 3895.51 413.861C3909.24 431.011 3928.96 440.2 3951.85 440.2V416.2C3935.87 416.2 3923.19 410.029 3914.24 398.859C3905.07 387.412 3899.05 369.691 3899.05 345.64H3875.05ZM4112.93 396.04V384.04H4100.08L4100.96 396.856L4112.93 396.04ZM4151.33 396.04L4163.18 394.155L4161.57 384.04H4151.33V396.04ZM4224.29 358.6L4222.61 370.483L4222.64 370.486L4222.67 370.49L4224.29 358.6ZM4190.21 353.8L4191.88 341.917L4191.87 341.916L4190.21 353.8ZM4299.17 280.84V292.84H4312.04L4311.14 279.995L4299.17 280.84ZM4260.29 280.84L4248.33 281.895L4249.3 292.84H4260.29V280.84ZM4202.69 318.76L4204.36 306.877L4204.33 306.874L4204.31 306.87L4202.69 318.76ZM4236.77 323.56L4235.09 335.443L4235.1 335.444L4236.77 323.56ZM4210.37 450.76C4182.31 450.76 4161.33 444.916 4147.38 435.344C4133.84 426.06 4126.1 412.757 4124.9 395.224L4100.96 396.856C4102.64 421.563 4114.09 441.62 4133.8 455.136C4153.08 468.364 4179.38 474.76 4210.37 474.76V450.76ZM4112.93 408.04H4151.33V384.04H4112.93V408.04ZM4139.48 397.925C4141.8 412.511 4150.33 423.583 4163.25 430.589C4175.66 437.318 4191.83 440.2 4210.37 440.2V416.2C4193.87 416.2 4182.2 413.562 4174.69 409.491C4167.69 405.697 4164.22 400.689 4163.18 394.155L4139.48 397.925ZM4210.37 440.2C4229.66 440.2 4246.75 436.953 4259.41 429.097C4272.83 420.774 4280.45 407.718 4280.45 391.24H4256.45C4256.45 399.242 4253.27 404.666 4246.76 408.703C4239.5 413.207 4227.56 416.2 4210.37 416.2V440.2ZM4280.45 391.24C4280.45 378.679 4275.98 367.775 4265.42 359.9C4255.83 352.749 4242.28 348.943 4225.91 346.71L4222.67 370.49C4237.97 372.577 4246.5 375.731 4251.07 379.14C4254.67 381.825 4256.45 385.081 4256.45 391.24H4280.45ZM4225.96 346.717L4191.88 341.917L4188.53 365.683L4222.61 370.483L4225.96 346.717ZM4191.87 341.916C4169.03 338.718 4154.31 332.434 4145.35 324.083C4136.81 316.119 4132.13 304.975 4132.13 288.52H4108.13C4108.13 309.985 4114.49 328.121 4128.98 341.637C4143.07 354.766 4163.39 362.162 4188.54 365.684L4191.87 341.916ZM4132.13 288.52C4132.13 268.415 4139.21 254.227 4151.3 244.738C4163.81 234.914 4183.14 229 4209.41 229V205C4179.99 205 4154.68 211.566 4136.48 225.862C4117.84 240.493 4108.13 262.065 4108.13 288.52H4132.13ZM4209.41 229C4234.75 229 4253.76 234.455 4266.44 243.418C4278.73 252.105 4286 264.706 4287.2 281.685L4311.14 279.995C4309.46 256.174 4298.73 236.855 4280.3 223.822C4262.25 211.065 4237.82 205 4209.41 205V229ZM4299.17 268.84H4260.29V292.84H4299.17V268.84ZM4272.24 279.785C4271.13 267.193 4263.69 256.77 4252.57 249.88C4241.62 243.098 4227.01 239.56 4209.89 239.56V263.56C4223.97 263.56 4233.83 266.502 4239.93 270.28C4245.85 273.95 4248.01 278.167 4248.33 281.895L4272.24 279.785ZM4209.89 239.56C4192.64 239.56 4177.18 243.054 4165.66 250.766C4153.64 258.806 4146.53 271.092 4146.53 286.12H4170.53C4170.53 279.548 4173.26 274.554 4179 270.714C4185.23 266.546 4195.46 263.56 4209.89 263.56V239.56ZM4146.53 286.12C4146.53 298.681 4150.99 309.585 4161.55 317.46C4171.14 324.611 4184.69 328.417 4201.07 330.65L4204.31 306.87C4189 304.783 4180.47 301.629 4175.9 298.22C4172.3 295.535 4170.53 292.279 4170.53 286.12H4146.53ZM4201.01 330.643L4235.09 335.443L4238.44 311.677L4204.36 306.877L4201.01 330.643ZM4235.1 335.444C4257.95 338.642 4272.67 344.926 4281.62 353.277C4290.17 361.241 4294.85 372.385 4294.85 388.84H4318.85C4318.85 367.375 4312.49 349.239 4297.99 335.723C4283.91 322.594 4263.59 315.198 4238.43 311.676L4235.1 335.444ZM4294.85 388.84C4294.85 409.81 4287.36 424.524 4274.25 434.393C4260.62 444.656 4239.44 450.76 4210.37 450.76V474.76C4242.26 474.76 4269.32 468.144 4288.68 453.567C4308.57 438.596 4318.85 416.35 4318.85 388.84H4294.85Z" fill="#F9F6F2" mask="url(#path-7-outside-1_97_342)"/>
<defs>
<clipPath id="clip0_97_342">
<rect width="603" height="601" fill="white"/>
</clipPath>
<clipPath id="clip1_97_342">
<rect width="538.327" height="539.28" rx="100" transform="matrix(0.990256 -0.139261 0.139368 0.990241 -4.16992 70.9766)" fill="white"/>
</clipPath>
</defs>
</svg>
