<svg width="1278" height="601" viewBox="0 0 1278 601" fill="none" xmlns="http://www.w3.org/2000/svg">
<g clip-path="url(#clip0_97_351)">
<ellipse cx="299.389" cy="299.934" rx="229.615" ry="230.036" fill="#F9F6F2"/>
<g clip-path="url(#clip1_97_351)">
<path fill-rule="evenodd" clip-rule="evenodd" d="M753.614 651.729L-157.576 -35.9603L-151 -44.7051L760.189 642.985L753.614 651.729Z" fill="#F9F6F2"/>
<path fill-rule="evenodd" clip-rule="evenodd" d="M478.434 444.048L111.712 167.277L118.293 158.525L485.015 435.297L478.434 444.048Z" fill="#7F71EA"/>
</g>
<ellipse cx="552.139" cy="151.445" rx="20.0005" ry="20.0134" fill="#F9F6F2"/>
<path d="M592.777 273.699C592.777 317.514 557.326 353.017 513.613 353.017C469.901 353.017 434.449 317.514 434.449 273.699C434.449 229.884 469.901 194.381 513.613 194.381C557.326 194.381 592.777 229.884 592.777 273.699Z" fill="#21201F" stroke="#F9F6F2" stroke-width="10"/>
</g>
<mask id="path-7-outside-1_97_351" maskUnits="userSpaceOnUse" x="773" y="98" width="489" height="377" fill="black">
<rect fill="white" x="773" y="98" width="489" height="377"/>
<path d="M879.32 175.72C860.6 175.72 846.68 161.8 846.68 143.08C846.68 124.36 860.6 110.44 879.32 110.44C898.04 110.44 911.96 124.36 911.96 143.08C911.96 161.8 898.04 175.72 879.32 175.72ZM785.24 457V423.88H865.88V255.88H785.24V222.76H903.32V423.88H983.96V457H785.24ZM1168.55 462.76C1117.19 462.76 1088.39 433.96 1088.39 382.6V149.32H1028.39V116.2H1125.83V377.8C1125.83 411.4 1140.23 428.2 1169.03 428.2C1198.31 428.2 1212.71 411.4 1212.71 377.8V360.52H1249.19V382.6C1249.19 433.96 1220.39 462.76 1168.55 462.76Z"/>
</mask>
<path d="M879.32 175.72C860.6 175.72 846.68 161.8 846.68 143.08C846.68 124.36 860.6 110.44 879.32 110.44C898.04 110.44 911.96 124.36 911.96 143.08C911.96 161.8 898.04 175.72 879.32 175.72ZM785.24 457V423.88H865.88V255.88H785.24V222.76H903.32V423.88H983.96V457H785.24ZM1168.55 462.76C1117.19 462.76 1088.39 433.96 1088.39 382.6V149.32H1028.39V116.2H1125.83V377.8C1125.83 411.4 1140.23 428.2 1169.03 428.2C1198.31 428.2 1212.71 411.4 1212.71 377.8V360.52H1249.19V382.6C1249.19 433.96 1220.39 462.76 1168.55 462.76Z" fill="#F9F6F2"/>
<path d="M785.24 457H773.24V469H785.24V457ZM785.24 423.88V411.88H773.24V423.88H785.24ZM865.88 423.88V435.88H877.88V423.88H865.88ZM865.88 255.88H877.88V243.88H865.88V255.88ZM785.24 255.88H773.24V267.88H785.24V255.88ZM785.24 222.76V210.76H773.24V222.76H785.24ZM903.32 222.76H915.32V210.76H903.32V222.76ZM903.32 423.88H891.32V435.88H903.32V423.88ZM983.96 423.88H995.96V411.88H983.96V423.88ZM983.96 457V469H995.96V457H983.96ZM879.32 163.72C867.227 163.72 858.68 155.173 858.68 143.08H834.68C834.68 168.427 853.973 187.72 879.32 187.72V163.72ZM858.68 143.08C858.68 130.987 867.227 122.44 879.32 122.44V98.44C853.973 98.44 834.68 117.733 834.68 143.08H858.68ZM879.32 122.44C891.413 122.44 899.96 130.987 899.96 143.08H923.96C923.96 117.733 904.667 98.44 879.32 98.44V122.44ZM899.96 143.08C899.96 155.173 891.413 163.72 879.32 163.72V187.72C904.667 187.72 923.96 168.427 923.96 143.08H899.96ZM797.24 457V423.88H773.24V457H797.24ZM785.24 435.88H865.88V411.88H785.24V435.88ZM877.88 423.88V255.88H853.88V423.88H877.88ZM865.88 243.88H785.24V267.88H865.88V243.88ZM797.24 255.88V222.76H773.24V255.88H797.24ZM785.24 234.76H903.32V210.76H785.24V234.76ZM891.32 222.76V423.88H915.32V222.76H891.32ZM903.32 435.88H983.96V411.88H903.32V435.88ZM971.96 423.88V457H995.96V423.88H971.96ZM983.96 445H785.24V469H983.96V445ZM1088.39 149.32H1100.39V137.32H1088.39V149.32ZM1028.39 149.32H1016.39V161.32H1028.39V149.32ZM1028.39 116.2V104.2H1016.39V116.2H1028.39ZM1125.83 116.2H1137.83V104.2H1125.83V116.2ZM1212.71 360.52V348.52H1200.71V360.52H1212.71ZM1249.19 360.52H1261.19V348.52H1249.19V360.52ZM1168.55 450.76C1145.07 450.76 1128.46 444.213 1117.7 433.455C1106.94 422.696 1100.39 406.081 1100.39 382.6H1076.39C1076.39 410.479 1084.25 433.944 1100.73 450.425C1117.21 466.907 1140.67 474.76 1168.55 474.76V450.76ZM1100.39 382.6V149.32H1076.39V382.6H1100.39ZM1088.39 137.32H1028.39V161.32H1088.39V137.32ZM1040.39 149.32V116.2H1016.39V149.32H1040.39ZM1028.39 128.2H1125.83V104.2H1028.39V128.2ZM1113.83 116.2V377.8H1137.83V116.2H1113.83ZM1113.83 377.8C1113.83 396.036 1117.7 411.952 1127.52 423.409C1137.65 435.221 1152.26 440.2 1169.03 440.2V416.2C1157.01 416.2 1150.02 412.779 1145.74 407.79C1141.17 402.448 1137.83 393.164 1137.83 377.8H1113.83ZM1169.03 440.2C1185.99 440.2 1200.73 435.257 1210.93 423.447C1220.85 411.976 1224.71 396.033 1224.71 377.8H1200.71C1200.71 393.167 1197.38 402.424 1192.77 407.753C1188.46 412.743 1181.36 416.2 1169.03 416.2V440.2ZM1224.71 377.8V360.52H1200.71V377.8H1224.71ZM1212.71 372.52H1249.19V348.52H1212.71V372.52ZM1237.19 360.52V382.6H1261.19V360.52H1237.19ZM1237.19 382.6C1237.19 406.08 1230.65 422.683 1219.85 433.436C1209.04 444.197 1192.3 450.76 1168.55 450.76V474.76C1196.64 474.76 1220.23 466.923 1236.78 450.444C1253.34 433.957 1261.19 410.48 1261.19 382.6H1237.19Z" fill="#F9F6F2" mask="url(#path-7-outside-1_97_351)"/>
<defs>
<clipPath id="clip0_97_351">
<rect width="603" height="601" fill="white"/>
</clipPath>
<clipPath id="clip1_97_351">
<rect width="538.327" height="539.28" rx="100" transform="matrix(0.990256 -0.139261 0.139368 0.990241 -4.16992 70.9766)" fill="white"/>
</clipPath>
</defs>
</svg>
