<svg width="1780" height="1773" viewBox="0 0 1780 1773" fill="none" xmlns="http://www.w3.org/2000/svg">
<g clip-path="url(#clip0_101_9)">
<ellipse cx="886.309" cy="886.147" rx="346.898" ry="346.776" fill="#21201F"/>
<g clip-path="url(#clip1_101_9)">
<path fill-rule="evenodd" clip-rule="evenodd" d="M1572.54 1416.47L195.937 379.788L205.871 366.605L1582.48 1403.29L1572.54 1416.47Z" fill="#21201F"/>
<path fill-rule="evenodd" clip-rule="evenodd" d="M1156.81 1103.4L602.772 686.168L612.714 672.975L1166.75 1090.2L1156.81 1103.4Z" fill="#AAA0F9"/>
</g>
<ellipse cx="1268.16" cy="662.301" rx="30.2163" ry="30.17" fill="#21201F"/>
<path d="M1332.11 846.597C1332.11 914.034 1277.42 968.705 1209.96 968.705C1142.49 968.705 1087.8 914.034 1087.8 846.597C1087.8 779.16 1142.49 724.488 1209.96 724.488C1277.42 724.488 1332.11 779.16 1332.11 846.597Z" fill="#F9F6F2" stroke="#21201F" stroke-width="10"/>
</g>
<defs>
<clipPath id="clip0_101_9">
<rect width="911" height="906" fill="white" transform="translate(434 434)"/>
</clipPath>
<clipPath id="clip1_101_9">
<rect width="813.259" height="812.992" rx="100" transform="matrix(0.990298 -0.138964 0.139666 0.990199 427.7 540.994)" fill="white"/>
</clipPath>
</defs>
</svg>
