<svg width="2350" height="1773" viewBox="0 0 2350 1773" fill="none" xmlns="http://www.w3.org/2000/svg">
<g clip-path="url(#clip0_91_272)">
<ellipse cx="1170.15" cy="502.053" rx="384.596" ry="385.051" fill="#21201F"/>
<g clip-path="url(#clip1_91_272)">
<path fill-rule="evenodd" clip-rule="evenodd" d="M1930.96 1090.91L404.758 -60.1944L415.771 -74.832L1941.98 1076.28L1930.96 1090.91Z" fill="#21201F"/>
<path fill-rule="evenodd" clip-rule="evenodd" d="M1470.05 743.282L855.804 280.001L866.826 265.352L1481.07 728.633L1470.05 743.282Z" fill="#AAA0F9"/>
</g>
<circle cx="1593.5" cy="253.5" r="33.5" fill="#21201F"/>
<path d="M1664.94 458.138C1664.94 533.331 1604.06 594.276 1528.97 594.276C1453.88 594.276 1393 533.331 1393 458.138C1393 382.946 1453.88 322 1528.97 322C1604.06 322 1664.94 382.946 1664.94 458.138Z" fill="#F9F6F2" stroke="#21201F" stroke-width="10"/>
</g>
<path d="M104.533 1190.69C123.082 1190.69 136.868 1176.9 136.868 1158.34C136.868 1139.8 123.082 1126 104.533 1126C85.9846 1126 72.1801 1139.8 72.1801 1158.34C72.1801 1176.9 85.9846 1190.69 104.533 1190.69ZM11.3086 1469.4H208.209V1436.56H128.308V1237.29H11.3086V1270.11H91.2104V1436.56H11.3086V1469.4Z" fill="#21201F" stroke="#21201F" stroke-width="22.1692" stroke-miterlimit="2"/>
<path d="M277.643 1469.4H314.74V1335.28C314.74 1294.85 341.386 1265.83 379.91 1265.83C410.818 1265.83 426.995 1284.38 426.995 1321.47V1469.4H464.092V1320.05C464.092 1262.51 437.928 1231.58 388.934 1231.58C353.745 1231.58 328.063 1247.28 314.74 1276.78H312.849L310.459 1237.29H277.643V1469.4Z" fill="#21201F" stroke="#21201F" stroke-width="22.1692" stroke-miterlimit="2"/>
<path d="M660.029 1475.11C711.395 1475.11 739.931 1446.57 739.931 1395.67V1373.8H703.797V1390.92C703.797 1424.21 689.528 1440.86 660.511 1440.86C631.974 1440.86 617.706 1424.21 617.706 1390.92V1270.11H722.809V1237.29H617.706V1155.5H588.225L582.517 1237.29H521.164V1270.11H580.609V1395.67C580.609 1446.57 609.145 1475.11 660.029 1475.11Z" fill="#21201F" stroke="#21201F" stroke-width="22.1692" stroke-miterlimit="2"/>
<path d="M819.832 1469.4H856.929V1335.28C856.929 1294.85 883.093 1265.83 919.709 1265.83C950.154 1265.83 966.794 1286.28 966.794 1324.81V1350.95H1003.89V1320.05C1003.89 1262.51 977.745 1231.58 929.697 1231.58C895.453 1231.58 870.252 1247.76 856.929 1276.78H855.039L852.649 1237.29H819.832V1469.4Z" fill="#21201F" stroke="#21201F" stroke-width="22.1692" stroke-miterlimit="2"/>
<path d="M1169.88 1190.69C1188.43 1190.69 1202.22 1176.9 1202.22 1158.34C1202.22 1139.8 1188.43 1126 1169.88 1126C1151.33 1126 1137.55 1139.8 1137.55 1158.34C1137.55 1176.9 1151.33 1190.69 1169.88 1190.69ZM1076.66 1469.4H1273.56V1436.56H1193.66V1237.29H1076.66V1270.11H1156.56V1436.56H1076.66V1469.4Z" fill="#21201F" stroke="#21201F" stroke-width="22.1692" stroke-miterlimit="2"/>
<path d="M1343.01 1469.4H1380.11V1335.28C1380.11 1294.85 1406.74 1265.83 1445.26 1265.83C1476.17 1265.83 1492.34 1284.38 1492.34 1321.47V1469.4H1529.44V1320.05C1529.44 1262.51 1503.28 1231.58 1454.3 1231.58C1419.09 1231.58 1393.41 1247.28 1380.11 1276.78H1378.2L1375.83 1237.29H1343.01V1469.4Z" fill="#21201F" stroke="#21201F" stroke-width="22.1692" stroke-miterlimit="2"/>
<path d="M1700.66 1475.11C1761.07 1475.11 1796.26 1449.89 1796.26 1401.86C1796.26 1364.28 1774.37 1343.82 1726.82 1337.17L1693.04 1332.42C1661.65 1328.14 1649.29 1318.62 1649.29 1300.07C1649.29 1278.67 1668.79 1265.83 1700.18 1265.83C1731.1 1265.83 1748.69 1278.67 1750.12 1294.85H1788.64C1785.79 1254.41 1752.97 1231.58 1699.71 1231.58C1644.53 1231.58 1611.25 1256.32 1611.25 1302.46C1611.25 1340.02 1633.12 1360.48 1680.68 1367.13L1714.45 1371.89C1745.84 1376.17 1758.21 1385.68 1758.21 1404.23C1758.21 1428.48 1736.81 1440.86 1700.66 1440.86C1665.93 1440.86 1645.49 1429.91 1642.16 1408.99H1604.12C1606.97 1450.83 1642.16 1475.11 1700.66 1475.11Z" fill="#21201F" stroke="#21201F" stroke-width="22.1692" stroke-miterlimit="2"/>
<path d="M1968.9 1190.69C1987.45 1190.69 2001.24 1176.9 2001.24 1158.34C2001.24 1139.8 1987.45 1126 1968.9 1126C1950.35 1126 1936.57 1139.8 1936.57 1158.34C1936.57 1176.9 1950.35 1190.69 1968.9 1190.69ZM1875.68 1469.4H2072.58V1436.56H1992.67V1237.29H1875.68V1270.11H1955.58V1436.56H1875.68V1469.4Z" fill="#21201F" stroke="#21201F" stroke-width="22.1692" stroke-miterlimit="2"/>
<path d="M2239.51 1475.11C2291.84 1475.11 2325.12 1447.51 2336.07 1397.09H2296.12C2287.56 1425.63 2268.53 1440.86 2239.51 1440.86C2198.62 1440.86 2177.22 1410.9 2177.22 1353.34C2177.22 1295.79 2198.62 1265.83 2239.51 1265.83C2268.53 1265.83 2287.56 1281.06 2296.12 1309.11H2335.59C2324.66 1258.69 2291.84 1231.58 2239.51 1231.58C2173.88 1231.58 2138.69 1274.39 2138.69 1353.34C2138.69 1432.3 2173.88 1475.11 2239.51 1475.11Z" fill="#21201F" stroke="#21201F" stroke-width="22.1692" stroke-miterlimit="2"/>
<path d="M4 1769.17V1585.76H41.2V1737.91H134.2V1769.17H4Z" fill="#21201F"/>
<path d="M484.977 1769.17H444.419L428.402 1727.07H354.261L339.019 1769.17H299.494L371.569 1584.21H411.094L484.977 1769.17ZM416.261 1696.07L390.944 1627.35L365.886 1696.07H416.261Z" fill="#21201F"/>
<path d="M662.494 1584.21H736.377C751.102 1584.21 761.952 1584.98 769.186 1586.02C776.419 1587.31 782.877 1589.89 788.561 1593.77C794.244 1597.64 798.894 1602.81 802.769 1609.27C806.386 1615.72 808.452 1622.7 808.452 1630.71C808.452 1639.49 806.127 1647.5 801.477 1654.73C796.827 1661.97 790.369 1667.39 782.361 1671.01C793.727 1674.11 802.252 1679.79 808.452 1687.8C814.394 1695.55 817.494 1704.85 817.494 1715.44C817.494 1723.97 815.427 1732.23 811.552 1739.98C807.677 1747.99 802.252 1754.45 795.536 1759.1C788.819 1764.01 780.552 1766.85 770.477 1767.88C764.277 1768.66 749.294 1768.92 725.527 1769.17H662.494V1584.21ZM699.952 1614.95V1657.83H724.494C738.961 1657.83 748.002 1657.57 751.361 1657.06C757.819 1656.28 762.986 1654.22 766.602 1650.6C770.219 1646.98 772.027 1642.07 772.027 1636.13C772.027 1630.45 770.477 1625.8 767.377 1622.18C764.277 1618.57 759.369 1616.5 753.169 1615.72C749.552 1615.21 738.961 1614.95 721.394 1614.95H699.952ZM699.952 1688.57V1737.92H734.569C748.002 1737.92 756.527 1737.66 760.144 1736.88C765.569 1735.85 770.219 1733.52 773.577 1729.39C777.194 1725.52 778.744 1720.35 778.744 1713.89C778.744 1708.21 777.452 1703.56 774.869 1699.68C772.027 1695.81 768.152 1692.97 763.244 1691.16C758.077 1689.35 746.969 1688.57 729.919 1688.57H699.952Z" fill="#21201F"/>
<path d="M997.078 1708.98L1033.5 1705.36C1035.57 1717.76 1039.96 1726.55 1046.68 1732.23C1053.39 1738.17 1062.44 1741.01 1073.8 1741.01C1085.94 1741.01 1094.99 1738.43 1100.93 1733.26C1107.13 1728.1 1110.23 1722.16 1110.23 1715.44C1110.23 1711.05 1108.94 1707.43 1106.35 1704.33C1103.77 1701.23 1099.12 1698.65 1092.92 1696.32C1088.53 1694.77 1078.45 1691.93 1062.95 1688.31C1043.06 1683.15 1028.85 1677.21 1020.84 1669.97C1009.48 1659.64 1003.79 1647.24 1003.79 1632.77C1003.79 1623.21 1006.38 1614.43 1011.8 1606.16C1017.23 1598.16 1024.72 1591.7 1034.79 1587.56C1044.87 1583.17 1057.01 1581.11 1071.22 1581.11C1094.47 1581.11 1112.04 1586.27 1123.66 1596.35C1135.54 1606.42 1141.49 1620.11 1142.26 1637.16L1104.8 1638.71C1103.25 1629.16 1099.89 1622.44 1094.47 1618.31C1089.3 1614.17 1081.29 1612.11 1070.96 1612.11C1060.11 1612.11 1051.59 1614.17 1045.39 1618.56C1041.51 1621.66 1039.44 1625.28 1039.44 1630.19C1039.44 1634.58 1041.25 1638.2 1045.13 1641.3C1049.78 1645.43 1061.14 1649.56 1079.23 1653.7C1097.57 1658.09 1111 1662.48 1119.53 1667.13C1128.31 1671.52 1135.29 1677.98 1140.19 1685.73C1145.1 1693.74 1147.43 1703.56 1147.43 1715.44C1147.43 1726.03 1144.59 1735.85 1138.64 1745.15C1132.7 1754.45 1124.44 1761.16 1113.59 1765.81C1102.99 1770.21 1089.56 1772.53 1073.54 1772.53C1050.04 1772.53 1032.21 1767.11 1019.55 1756.26C1007.15 1745.41 999.661 1729.65 997.078 1708.98Z" fill="#21201F"/>
<path d="M1564.32 1769.17V1585.76H1601.52V1737.91H1694.52V1769.17H1564.32Z" fill="#21201F"/>
<path d="M1877.14 1769.17V1585.76H1914.34V1737.91H2007.34V1769.17H1877.14Z" fill="#21201F"/>
<path d="M2307.22 1701.23L2343.38 1712.6C2337.7 1732.75 2328.66 1747.73 2315.74 1757.55C2302.83 1767.36 2286.29 1772.27 2266.66 1772.27C2241.86 1772.27 2221.71 1764.01 2205.95 1747.21C2190.19 1730.42 2182.18 1707.43 2182.18 1678.24C2182.18 1647.5 2190.19 1623.73 2206.21 1606.68C2221.97 1589.63 2242.89 1581.11 2268.73 1581.11C2291.46 1581.11 2309.8 1587.82 2324.01 1601.26C2332.28 1609.01 2338.73 1620.37 2342.87 1635.1L2305.93 1644.14C2303.6 1634.58 2299.21 1626.83 2292.23 1621.41C2285.26 1615.72 2276.73 1613.14 2266.92 1613.14C2253.23 1613.14 2242.12 1618.05 2233.59 1627.86C2225.07 1637.68 2220.68 1653.44 2220.68 1675.66C2220.68 1698.91 2225.07 1715.7 2233.33 1725.51C2241.86 1735.33 2252.71 1740.5 2266.14 1740.5C2275.96 1740.5 2284.74 1737.14 2291.72 1730.94C2298.95 1724.74 2304.12 1714.66 2307.22 1701.23Z" fill="#21201F"/>
<defs>
<clipPath id="clip0_91_272">
<rect width="1010" height="1006" fill="white" transform="translate(668.691)"/>
</clipPath>
<clipPath id="clip1_91_272">
<rect width="901.664" height="902.7" rx="100" transform="matrix(0.990268 -0.139173 0.139456 0.990228 661.707 118.805)" fill="white"/>
</clipPath>
</defs>
</svg>
