<svg width="730" height="731" viewBox="0 0 730 731" fill="none" xmlns="http://www.w3.org/2000/svg">
<path d="M688.476 261.87C704.497 277.893 718.336 295.255 730 313.592C616.385 283.379 490.177 312.815 401.03 401.977C311.883 491.138 282.451 617.367 312.659 731C294.326 719.334 276.966 705.493 260.945 689.47C142.886 571.391 142.886 379.948 260.945 261.87C379.005 143.791 570.417 143.791 688.476 261.87Z" fill="#7F71EA"/>
<path d="M373.585 170.253C369.591 128.48 351.602 87.7928 319.617 55.8028C246.521 -17.3054 128.008 -17.3054 54.9121 55.8028C-18.1842 128.911 -18.1842 247.443 54.9121 320.551C86.8969 352.541 127.578 370.533 169.344 374.527C184.592 328.355 210.577 284.952 247.301 248.223C284.025 211.493 327.42 185.503 373.585 170.253Z" fill="#E07A55"/>
</svg>
