<svg width="1638" height="1638" viewBox="0 0 1638 1638" fill="none" xmlns="http://www.w3.org/2000/svg">
<path d="M581.592 1191.1C556.294 1184.54 531.549 1176 507.585 1165.57L567.442 1028.03C584.216 1035.33 601.538 1041.31 619.247 1045.9L581.592 1191.1Z" fill="#7F71EA"/>
<path d="M235.602 873.489C226.905 848.843 220.154 823.554 215.411 797.853L362.919 770.629C366.24 788.62 370.966 806.322 377.053 823.574L235.602 873.489Z" fill="#7F71EA"/>
<path d="M326.526 382.825C343.639 362.741 362.315 344.043 382.379 326.907L479.797 440.967C465.753 452.962 452.679 466.051 440.7 480.109L326.526 382.825Z" fill="#7F71EA"/>
<path d="M769.091 210.963C794.665 214.158 819.953 219.326 844.73 226.419L803.443 370.626C786.099 365.66 768.397 362.043 750.496 359.806L769.091 210.963Z" fill="#7F71EA"/>
<path d="M1164.83 505.886C1175.2 529.479 1183.73 553.839 1190.35 578.748L1045.38 617.255C1040.75 599.819 1034.77 582.768 1027.51 566.252L1164.83 505.886Z" fill="#7F71EA"/>
<path d="M1486.34 821.658C1511.25 846.566 1532.76 873.554 1550.89 902.057C1374.26 855.093 1178.04 900.85 1039.45 1039.45C900.85 1178.04 855.093 1374.26 902.057 1550.89C873.554 1532.76 846.565 1511.25 821.657 1486.34C638.111 1302.79 638.111 1005.2 821.657 821.658C1005.2 638.111 1302.79 638.111 1486.34 821.658Z" fill="#E07A55"/>
<path d="M996.778 679.245C990.569 614.311 962.601 551.065 912.874 501.338C799.232 387.696 614.981 387.696 501.338 501.338C387.696 614.981 387.696 799.232 501.338 912.874C551.065 962.601 614.311 990.569 679.245 996.778C702.951 925.005 743.351 857.539 800.444 800.445C857.538 743.351 925.005 702.951 996.778 679.245Z" fill="#7F71EA"/>
</svg>
