<svg width="867" height="1078" viewBox="0 0 867 1078" fill="none" xmlns="http://www.w3.org/2000/svg">
<path fill-rule="evenodd" clip-rule="evenodd" d="M730.904 10.3001V234.184C730.904 235.1 730.165 235.83 729.256 235.83H711.95C711.04 235.83 710.302 235.1 710.302 234.184V10.3001C710.302 4.61647 714.917 0 720.603 0C726.288 0 730.904 4.61647 730.904 10.3001Z" fill="#7F71EA"/>
<path fill-rule="evenodd" clip-rule="evenodd" d="M757.392 217.647V379.519C757.392 382.772 754.755 385.406 751.506 385.406H689.7C686.451 385.406 683.813 382.772 683.813 379.519V217.647C683.813 197.342 700.298 180.857 720.603 180.857C740.907 180.857 757.392 197.342 757.392 217.647Z" fill="#7F71EA"/>
<path fill-rule="evenodd" clip-rule="evenodd" d="M866.307 594.657V1047.5C866.307 1064.07 852.876 1077.5 836.307 1077.5H30.0039C13.4354 1077.5 0.00390625 1064.07 0.00390625 1047.5L0.00390625 615.705C0.00390625 370.83 198.811 172.026 443.688 172.026C676.934 172.026 866.307 361.39 866.307 594.657Z" fill="#7F71EA"/>
<path fill-rule="evenodd" clip-rule="evenodd" d="M58.3174 772.805C49.5527 700.993 24.511 602 231.278 597.6C438.044 593.215 645.79 592.141 645.79 592.141C645.79 592.141 831.355 603.501 797.244 773.07C763.133 942.639 755.069 949.32 479.482 953.676C203.888 958.017 84.5158 987.434 58.3174 772.805Z" fill="#21201F"/>
<path fill-rule="evenodd" clip-rule="evenodd" d="M83.2586 773.098C75.1295 711.917 51.9038 627.582 243.676 623.833C435.447 620.097 628.127 619.182 628.127 619.182C628.127 619.182 800.235 628.86 768.598 773.324C736.96 917.787 729.481 923.479 473.88 927.19C218.272 930.888 107.557 955.949 83.2586 773.098ZM92.3758 771.882C99.3106 824.073 113.198 858.637 136.433 881.104C159.535 903.457 191.637 913.549 233.933 918.063C293.278 924.394 371.973 919.467 473.746 917.987C564.948 916.671 624.278 915.179 664.323 907.018C689.082 901.978 706.006 894.493 718.33 882.282C739.745 861.082 747.483 826.731 759.617 771.355C766.632 739.286 763.056 714.375 753.175 695.055C738.284 665.97 709.513 649.772 683.581 640.494C655.643 630.49 630.666 628.559 627.854 628.371C619.174 628.421 431.082 629.374 243.855 633.035C153.11 634.803 112.664 653.947 96.4348 681.591C88.7398 694.692 86.8304 709.435 87.1211 724.304C87.4391 740.527 90.3858 756.913 92.3758 771.882Z" fill="#F9F6F2"/>
<path fill-rule="evenodd" clip-rule="evenodd" d="M632.479 741.57V744.012C632.479 760.994 618.693 774.783 601.715 774.783H260.547C238.988 774.783 221.482 757.286 221.482 735.713C221.482 727.222 228.375 720.335 236.864 720.335H611.244C622.965 720.335 632.479 729.856 632.479 741.57Z" fill="#F9F6F2"/>
</svg>
