<svg width="2352" height="752" viewBox="0 0 2352 752" fill="none" xmlns="http://www.w3.org/2000/svg">
<path d="M105.831 76.6883C124.38 76.6883 138.166 62.9015 138.166 44.335C138.166 25.8042 124.38 12 105.831 12C87.2825 12 73.478 25.8042 73.478 44.335C73.478 62.9015 87.2825 76.6883 105.831 76.6883ZM12.6064 355.399H209.507V322.564H129.606V123.291H12.6064V156.108H92.5082V322.564H12.6064V355.399Z" fill="#21201F" stroke="#21201F" stroke-width="22.1692" stroke-miterlimit="2"/>
<path d="M278.939 355.398H316.037V221.278C316.037 180.845 342.682 151.827 381.206 151.827C412.115 151.827 428.291 170.376 428.291 207.473V355.398H465.389V206.046C465.389 148.51 439.224 117.584 390.231 117.584C355.042 117.584 329.359 133.279 316.037 162.778H314.146L311.756 123.291H278.939V355.398Z" fill="#21201F" stroke="#21201F" stroke-width="22.1692" stroke-miterlimit="2"/>
<path d="M661.326 361.106C712.691 361.106 741.228 332.57 741.228 281.668V259.802H705.093V276.924C705.093 310.204 690.825 326.862 661.807 326.862C633.271 326.862 619.003 310.204 619.003 276.924V156.108H724.106V123.291H619.003V41.499H589.521L583.814 123.291H522.461V156.108H581.906V281.668C581.906 332.57 610.442 361.106 661.326 361.106Z" fill="#21201F" stroke="#21201F" stroke-width="22.1692" stroke-miterlimit="2"/>
<path d="M821.13 355.398H858.227V221.278C858.227 180.845 884.391 151.827 921.007 151.827C951.452 151.827 968.092 172.285 968.092 210.809V236.955H1005.19V206.046C1005.19 148.51 979.043 117.584 930.995 117.584C896.751 117.584 871.55 133.76 858.227 162.778H856.337L853.947 123.291H821.13V355.398Z" fill="#21201F" stroke="#21201F" stroke-width="22.1692" stroke-miterlimit="2"/>
<path d="M1171.18 76.6883C1189.73 76.6883 1203.52 62.9015 1203.52 44.335C1203.52 25.8042 1189.73 12 1171.18 12C1152.63 12 1138.85 25.8042 1138.85 44.335C1138.85 62.9015 1152.63 76.6883 1171.18 76.6883ZM1077.96 355.399H1274.86V322.564H1194.96V123.291H1077.96V156.108H1157.86V322.564H1077.96V355.399Z" fill="#21201F" stroke="#21201F" stroke-width="22.1692" stroke-miterlimit="2"/>
<path d="M1344.31 355.398H1381.4V221.278C1381.4 180.845 1408.03 151.827 1446.56 151.827C1477.47 151.827 1493.64 170.376 1493.64 207.473V355.398H1530.74V206.046C1530.74 148.51 1504.57 117.584 1455.6 117.584C1420.39 117.584 1394.71 133.279 1381.4 162.778H1379.5L1377.12 123.291H1344.31V355.398Z" fill="#21201F" stroke="#21201F" stroke-width="22.1692" stroke-miterlimit="2"/>
<path d="M1701.96 361.106C1762.37 361.106 1797.55 335.887 1797.55 287.857C1797.55 250.278 1775.67 229.821 1728.12 223.168L1694.34 218.424C1662.95 214.144 1650.59 204.62 1650.59 186.071C1650.59 164.669 1670.09 151.827 1701.48 151.827C1732.4 151.827 1749.99 164.669 1751.41 180.845H1789.94C1787.08 140.413 1754.27 117.584 1701.01 117.584C1645.83 117.584 1612.55 142.321 1612.55 188.461C1612.55 226.022 1634.42 246.479 1681.98 253.132L1715.74 257.893C1747.13 262.174 1759.51 271.68 1759.51 290.229C1759.51 314.485 1738.11 326.862 1701.96 326.862C1667.23 326.862 1646.79 315.911 1643.46 294.991H1605.42C1608.27 336.832 1643.46 361.106 1701.96 361.106Z" fill="#21201F" stroke="#21201F" stroke-width="22.1692" stroke-miterlimit="2"/>
<path d="M1970.2 76.6883C1988.75 76.6883 2002.53 62.9015 2002.53 44.335C2002.53 25.8042 1988.75 12 1970.2 12C1951.65 12 1937.86 25.8042 1937.86 44.335C1937.86 62.9015 1951.65 76.6883 1970.2 76.6883ZM1876.97 355.399H2073.87V322.564H1993.97V123.291H1876.97V156.108H1956.87V322.564H1876.97V355.399Z" fill="#21201F" stroke="#21201F" stroke-width="22.1692" stroke-miterlimit="2"/>
<path d="M2240.81 361.106C2293.14 361.106 2326.42 333.515 2337.37 283.095H2297.42C2288.86 311.631 2269.83 326.862 2240.81 326.862C2199.92 326.862 2178.51 296.899 2178.51 239.345C2178.51 181.791 2199.92 151.827 2240.81 151.827C2269.83 151.827 2288.86 167.059 2297.42 195.114H2336.89C2325.96 144.693 2293.14 117.584 2240.81 117.584C2175.18 117.584 2139.99 160.389 2139.99 239.345C2139.99 318.301 2175.18 361.106 2240.81 361.106Z" fill="#21201F" stroke="#21201F" stroke-width="22.1692" stroke-miterlimit="2"/>
<path d="M7.4375 748.586V565.169H44.6375V717.327H137.637V748.586H7.4375Z" fill="#21201F"/>
<path d="M488.416 748.586H447.858L431.841 706.477H357.699L342.458 748.586H302.933L375.008 563.619H414.533L488.416 748.586ZM419.699 675.477L394.383 606.761L369.324 675.477H419.699Z" fill="#21201F"/>
<path d="M665.933 563.619H739.816C754.541 563.619 765.391 564.394 772.624 565.427C779.858 566.719 786.316 569.302 791.999 573.177C797.683 577.052 802.333 582.219 806.208 588.677C809.824 595.136 811.891 602.111 811.891 610.119C811.891 618.902 809.566 626.911 804.916 634.144C800.266 641.377 793.808 646.802 785.799 650.419C797.166 653.519 805.691 659.202 811.891 667.211C817.833 674.961 820.933 684.261 820.933 694.852C820.933 703.377 818.866 711.644 814.991 719.394C811.116 727.402 805.691 733.861 798.974 738.511C792.258 743.419 783.991 746.261 773.916 747.294C767.716 748.069 752.733 748.327 728.966 748.586H665.933V563.619ZM703.391 594.361V637.244H727.933C742.399 637.244 751.441 636.986 754.799 636.469C761.258 635.694 766.424 633.627 770.041 630.011C773.658 626.394 775.466 621.486 775.466 615.544C775.466 609.861 773.916 605.211 770.816 601.594C767.716 597.977 762.808 595.911 756.608 595.136C752.991 594.619 742.399 594.361 724.833 594.361H703.391ZM703.391 667.986V717.327H738.008C751.441 717.327 759.966 717.069 763.583 716.294C769.008 715.261 773.658 712.936 777.016 708.802C780.633 704.927 782.183 699.761 782.183 693.302C782.183 687.619 780.891 682.969 778.308 679.094C775.466 675.219 771.591 672.377 766.683 670.569C761.516 668.761 750.408 667.986 733.358 667.986H703.391Z" fill="#21201F"/>
<path d="M1000.52 688.394L1036.94 684.777C1039.01 697.177 1043.4 705.96 1050.12 711.643C1056.83 717.585 1065.87 720.427 1077.24 720.427C1089.38 720.427 1098.42 717.843 1104.37 712.677C1110.57 707.51 1113.67 701.568 1113.67 694.852C1113.67 690.46 1112.37 686.843 1109.79 683.743C1107.21 680.644 1102.56 678.06 1096.36 675.735C1091.97 674.185 1081.89 671.344 1066.39 667.727C1046.5 662.56 1032.29 656.619 1024.28 649.385C1012.92 639.052 1007.23 626.652 1007.23 612.185C1007.23 602.627 1009.82 593.844 1015.24 585.577C1020.67 577.569 1028.16 571.11 1038.23 566.977C1048.31 562.585 1060.45 560.519 1074.66 560.519C1097.91 560.519 1115.47 565.685 1127.1 575.76C1138.98 585.835 1144.92 599.527 1145.7 616.577L1108.24 618.127C1106.69 608.569 1103.33 601.852 1097.91 597.719C1092.74 593.585 1084.73 591.519 1074.4 591.519C1063.55 591.519 1055.02 593.585 1048.82 597.977C1044.95 601.077 1042.88 604.694 1042.88 609.602C1042.88 613.994 1044.69 617.61 1048.57 620.71C1053.22 624.844 1064.58 628.977 1082.67 633.11C1101.01 637.502 1114.44 641.894 1122.97 646.544C1131.75 650.935 1138.72 657.394 1143.63 665.144C1148.54 673.152 1150.87 682.968 1150.87 694.852C1150.87 705.443 1148.02 715.26 1142.08 724.56C1136.14 733.86 1127.87 740.577 1117.02 745.227C1106.43 749.618 1093 751.943 1076.98 751.943C1053.47 751.943 1035.65 746.518 1022.99 735.668C1010.59 724.818 1003.1 709.06 1000.52 688.394Z" fill="#21201F"/>
<path d="M1567.76 748.586V565.169H1604.96V717.327H1697.96V748.586H1567.76Z" fill="#21201F"/>
<path d="M1880.57 748.586V565.169H1917.77V717.327H2010.77V748.586H1880.57Z" fill="#21201F"/>
<path d="M2310.66 680.643L2346.82 692.01C2341.14 712.16 2332.1 727.143 2319.18 736.96C2306.26 746.777 2289.73 751.685 2270.1 751.685C2245.3 751.685 2225.15 743.418 2209.39 726.627C2193.63 709.835 2185.62 686.843 2185.62 657.652C2185.62 626.91 2193.63 603.144 2209.65 586.094C2225.41 569.044 2246.33 560.519 2272.16 560.519C2294.9 560.519 2313.24 567.235 2327.45 580.669C2335.71 588.419 2342.17 599.785 2346.31 614.51L2309.36 623.552C2307.04 613.994 2302.65 606.244 2295.67 600.819C2288.7 595.135 2280.17 592.552 2270.36 592.552C2256.66 592.552 2245.56 597.46 2237.03 607.277C2228.51 617.094 2224.11 632.852 2224.11 655.069C2224.11 678.319 2228.51 695.11 2236.77 704.927C2245.3 714.743 2256.15 719.91 2269.58 719.91C2279.4 719.91 2288.18 716.552 2295.16 710.352C2302.39 704.152 2307.56 694.077 2310.66 680.643Z" fill="#21201F"/>
<path fill-rule="evenodd" clip-rule="evenodd" d="M2349.99 464.728V471.854C2349.99 478.698 2344.43 484.247 2337.6 484.247H12.3896C5.55523 484.247 0 478.698 0 471.854V464.728C0 457.885 5.55523 452.336 12.3896 452.336H2337.6C2344.43 452.336 2349.99 457.885 2349.99 464.728Z" fill="#7F71EA"/>
</svg>
